#N canvas 1556 330 1634 950 12;
#X obj 35 34 inlet;
#X obj 80 34 inlet;
#X floatatom 35 58 5 0 0 0 - - - 0;
#X floatatom 80 58 5 0 0 0 - - - 0;
#X floatatom 35 129 5 0 0 0 - - - 0;
#X obj 35 152 outlet;
#X obj 35 105 expr 60000 * $f2 / $f1;
#X obj 126 34 loadbang;
#X obj 80 81 t b f;
#X obj 126 58 t b b;
#X msg 165 82 1;
#X obj 126 82 f \$1;
#X connect 0 0 2 0;
#X connect 1 0 3 0;
#X connect 2 0 6 0;
#X connect 3 0 8 0;
#X connect 4 0 5 0;
#X connect 6 0 4 0;
#X connect 7 0 9 0;
#X connect 8 1 6 1;
#X connect 9 0 11 0;
#X connect 9 1 10 0;
#X connect 10 0 6 1;
#X connect 11 0 6 1;
