#N canvas 1590 186 1628 992 12;
#X obj 126 23 inlet;
#X obj 125 116 list fromsymbol;
#X obj 124 154 list split 3;
#X obj 514 154 list length;
#X floatatom 517 181 5 0 0 0 - - - 0;
#X text 59 127 E4B880;
#X obj 127 203 expr ($f1-228)*65536+$f2*256+$f3;
#X floatatom 127 227 7 0 0 0 - - - 0;
#X obj 123 369 pack f f f;
#X obj 474 366 list tosymbol;
#X obj 478 118 t l l;
#X obj 483 259 spigot;
#X obj 520 206 >= 3;
#X obj 109 448 list store;
#X obj 196 427 list;
#X obj 123 416 t b l;
#X listbox 196 456 29 0 0 0 - - - 0;
#X obj 474 444 outlet;
#X obj 125 76 t l b;
#X obj 585 247 sel 0;
#X obj 585 278 bng 19 250 50 0 empty empty empty 0 -10 0 12 #fcfcfc #000000 #000000;
#X obj 585 309 list store;
#X obj 196 479 t b;
#X obj 478 91 list;
#X obj 127 252 expr if($f1<170931 \, $f1+2 \, $f1+3);
#X obj 127 302 t f f f;
#X obj 376 335 mod 256;
#X obj 200 332 expr int($f1/256)%256;
#X obj 24 333 expr int($f1/65536)+228;
#X obj 127 278 expr if($f1%256>191&&$f1%256<195 \, $f1+192 \, $f1);
#X obj 474 418 list trim;
#X connect 0 0 18 0;
#X connect 1 0 2 0;
#X connect 2 0 6 0;
#X connect 2 1 23 1;
#X connect 3 0 4 0;
#X connect 4 0 12 0;
#X connect 6 0 7 0;
#X connect 7 0 24 0;
#X connect 8 0 15 0;
#X connect 9 0 30 0;
#X connect 10 0 11 0;
#X connect 10 1 3 0;
#X connect 11 0 2 0;
#X connect 12 0 11 1;
#X connect 12 0 19 0;
#X connect 13 0 14 0;
#X connect 14 0 13 1;
#X connect 14 0 16 0;
#X connect 15 0 13 0;
#X connect 15 1 14 1;
#X connect 16 0 21 1;
#X connect 16 0 22 0;
#X connect 18 0 1 0;
#X connect 18 1 13 1;
#X connect 19 0 20 0;
#X connect 20 0 21 0;
#X connect 21 0 9 0;
#X connect 22 0 23 0;
#X connect 23 0 10 0;
#X connect 24 0 29 0;
#X connect 25 0 28 0;
#X connect 25 1 27 0;
#X connect 25 2 26 0;
#X connect 26 0 8 2;
#X connect 27 0 8 1;
#X connect 28 0 8 0;
#X connect 29 0 8 2;
#X connect 29 0 25 0;
#X connect 30 0 17 0;
