#N canvas 563 391 1203 819 12;
#X obj 40 29 inlet;
#X obj 84 29 inlet;
#X obj 40 53 tgl 19 0 empty empty empty 0 -10 0 12 #fcfcfc #000000 #000000 0 1;
#X floatatom 84 53 5 0 0 0 - - - 0;
#X obj 40 77 t f b;
#X obj 40 101 metro 500;
#X obj 40 149 f;
#X obj 71 149 + 1;
#X msg 58 125 0;
#X obj 40 173 % 16;
#X obj 128 29 inlet;
#X floatatom 128 53 5 0 0 0 - - - 0;
#X obj 40 197 outlet;
#X obj 91 197 outlet;
#X msg 128 76 number \$1;
#X obj 172 29 loadbang;
#X msg 172 53 16;
#X connect 0 0 2 0;
#X connect 1 0 3 0;
#X connect 2 0 4 0;
#X connect 3 0 5 1;
#X connect 4 0 5 0;
#X connect 4 1 8 0;
#X connect 4 1 11 0;
#X connect 5 0 6 0;
#X connect 6 0 7 0;
#X connect 6 0 9 0;
#X connect 7 0 6 1;
#X connect 8 0 6 1;
#X connect 9 0 12 0;
#X connect 10 0 11 0;
#X connect 11 0 9 1;
#X connect 11 0 14 0;
#X connect 14 0 13 0;
#X connect 15 0 16 0;
#X connect 16 0 11 0;
