#N canvas 340 460 987 690 12;
#X obj 71 49 inlet;
#X obj 84 478 tabread4~ karp-samp-l;
#X obj 351 191 r pd-dsp-started;
#X obj 351 215 samplerate~;
#X obj 68 127 random;
#X obj 68 91 t b f;
#X msg 84 361 \$1 \, \$2 \$3;
#X obj 254 159 random 400;
#X obj 254 185 + 100;
#X obj 84 325 pack f f f;
#X obj 191 269 expr ($f2/1000)*$f3*$f1;
#X obj 113 287 +;
#X obj 108 179 random 6;
#X obj 108 203 sel 0 1 2 3 4 5;
#X msg 68 247 -2;
#X msg 112 237 -1;
#X msg 147 234 -0.5;
#X msg 190 235 0.5;
#X msg 230 235 1;
#X msg 270 234 2;
#X obj 84 397 vline~;
#X obj 84 434 expr~ $v1%$f2;
#X obj 774 198 r pd-dsp-started;
#X obj 774 222 samplerate~;
#X obj 491 134 random;
#X obj 491 98 t b f;
#X msg 507 368 \$1 \, \$2 \$3;
#X obj 677 166 random 400;
#X obj 677 192 + 100;
#X obj 507 332 pack f f f;
#X obj 614 276 expr ($f2/1000)*$f3*$f1;
#X obj 536 294 +;
#X obj 531 186 random 6;
#X obj 531 210 sel 0 1 2 3 4 5;
#X msg 491 254 -2;
#X msg 535 244 -1;
#X msg 570 241 -0.5;
#X msg 613 242 0.5;
#X msg 653 242 1;
#X msg 693 241 2;
#X obj 507 404 vline~;
#X obj 507 436 expr~ $v1%$f2;
#X obj 507 484 tabread4~ karp-samp-r;
#X obj 232 347 loadbang;
#X msg 232 371 1;
#X obj 84 599 outlet~;
#X obj 504 609 outlet~;
#X obj 82 531 *~;
#X obj 505 541 *~;
#X msg 265 453 1 25 \, 0 \$1 25;
#X obj 265 422 - 25;
#X obj 265 477 vline~;
#X msg 722 444 1 25 \, 0 \$1 25;
#X obj 722 413 - 25;
#X obj 722 468 vline~;
#X obj 68 151 t f f b b;
#X obj 491 158 t f f b b;
#X connect 0 0 5 0;
#X connect 0 0 25 0;
#X connect 1 0 47 0;
#X connect 2 0 3 0;
#X connect 3 0 10 2;
#X connect 4 0 55 0;
#X connect 5 0 4 0;
#X connect 5 1 4 1;
#X connect 5 1 21 1;
#X connect 6 0 20 0;
#X connect 7 0 8 0;
#X connect 8 0 9 2;
#X connect 8 0 10 1;
#X connect 8 0 50 0;
#X connect 9 0 6 0;
#X connect 10 0 11 1;
#X connect 11 0 9 1;
#X connect 12 0 13 0;
#X connect 13 0 14 0;
#X connect 13 1 15 0;
#X connect 13 2 16 0;
#X connect 13 3 17 0;
#X connect 13 4 18 0;
#X connect 13 5 19 0;
#X connect 14 0 10 0;
#X connect 15 0 10 0;
#X connect 16 0 10 0;
#X connect 17 0 10 0;
#X connect 18 0 10 0;
#X connect 19 0 10 0;
#X connect 20 0 21 0;
#X connect 21 0 1 0;
#X connect 22 0 23 0;
#X connect 23 0 30 2;
#X connect 24 0 56 0;
#X connect 25 0 24 0;
#X connect 25 1 24 1;
#X connect 25 1 41 1;
#X connect 26 0 40 0;
#X connect 27 0 28 0;
#X connect 28 0 29 2;
#X connect 28 0 30 1;
#X connect 28 0 53 0;
#X connect 29 0 26 0;
#X connect 30 0 31 1;
#X connect 31 0 29 1;
#X connect 32 0 33 0;
#X connect 33 0 34 0;
#X connect 33 1 35 0;
#X connect 33 2 36 0;
#X connect 33 3 37 0;
#X connect 33 4 38 0;
#X connect 33 5 39 0;
#X connect 34 0 30 0;
#X connect 35 0 30 0;
#X connect 36 0 30 0;
#X connect 37 0 30 0;
#X connect 38 0 30 0;
#X connect 39 0 30 0;
#X connect 40 0 41 0;
#X connect 41 0 42 0;
#X connect 42 0 48 0;
#X connect 43 0 44 0;
#X connect 44 0 21 1;
#X connect 44 0 41 1;
#X connect 47 0 45 0;
#X connect 48 0 46 0;
#X connect 49 0 51 0;
#X connect 50 0 49 0;
#X connect 51 0 47 1;
#X connect 52 0 54 0;
#X connect 53 0 52 0;
#X connect 54 0 48 1;
#X connect 55 0 9 0;
#X connect 55 1 11 0;
#X connect 55 2 12 0;
#X connect 55 3 7 0;
#X connect 56 0 29 0;
#X connect 56 1 31 0;
#X connect 56 2 32 0;
#X connect 56 3 27 0;
