#N canvas 1316 373 826 825 12;
#X obj 77 324 noise~;
#X obj 77 357 *~;
#X obj 135 351 vline~;
#X obj 279 234 mtof;
#X obj 279 258 expr 1000/$f1;
#X floatatom 279 282 5 0 0 0 - - - 0;
#X floatatom 162 167 5 0 0 0 - - - 0;
#X floatatom 207 167 5 0 0 0 - - - 0;
#X obj 136 290 pack;
#X obj 144 194 f;
#X obj 189 194 f;
#X obj 78 141 t b b;
#X obj 42 151 bng 19 250 50 0 empty empty empty 0 -10 0 12 #fcfcfc #000000 #000000;
#X obj 279 382 hip~ 200;
#X obj 279 406 lop~ 6000;
#X obj 77 386 hip~ 100;
#X obj 76 417 lop~ 8000;
#X floatatom 458 136 5 0 99 0 - - - 0;
#X floatatom 545 264 5 0 0 0 - - - 0;
#X floatatom 579 295 5 0 0 0 - - - 0;
#X obj 458 160 / 50;
#X obj 458 208 * 50;
#X obj 458 183 expr if($f1>=1 \, 1+pow($f1-1 \, 2) \, pow($f1 \, 2));
#X obj 427 294 expr ($f1+1)*60+2000;
#X obj 427 264 expr ($f1+1)*30;
#X floatatom 454 372 5 0 99 0 - - - 0;
#X floatatom 541 500 5 0 0 0 - - - 0;
#X floatatom 575 531 5 0 0 0 - - - 0;
#X obj 454 396 / 50;
#X obj 454 444 * 50;
#X obj 454 419 expr if($f1>=1 \, 1+pow($f1-1 \, 2) \, pow($f1 \, 2));
#X obj 423 530 expr ($f1+1)*20+4000;
#X obj 423 500 expr ($f1+1)*5;
#X msg 135 323 1 \$1 \, 0 \$2 \$1;
#X obj 368 694 outlet~, f 8;
#X obj 75 34 inlet;
#X obj 155 72 unpack f f f f f, f 26;
#X obj 75 58 t b l;
#X obj 279 358 *~ 0.995;
#X obj 77 446 delwrite~ \$0-karp-l 50;
#X obj 279 334 delread4~ \$0-karp-l;
#X obj 75 533 noise~;
#X obj 75 566 *~;
#X obj 219 569 hip~ 200;
#X obj 219 593 lop~ 6000;
#X obj 75 595 hip~ 100;
#X obj 74 626 lop~ 8000;
#X obj 219 545 *~ 0.995;
#X obj 75 655 delwrite~ \$0-karp-r 50;
#X obj 219 521 delread4~ \$0-karp-r;
#X obj 439 695 outlet~;
#X connect 0 0 1 0;
#X connect 1 0 15 0;
#X connect 2 0 1 1;
#X connect 2 0 42 1;
#X connect 3 0 4 0;
#X connect 4 0 5 0;
#X connect 5 0 40 0;
#X connect 5 0 49 0;
#X connect 6 0 9 1;
#X connect 7 0 10 1;
#X connect 8 0 33 0;
#X connect 9 0 8 0;
#X connect 10 0 8 1;
#X connect 11 0 9 0;
#X connect 11 1 10 0;
#X connect 12 0 11 0;
#X connect 13 0 14 0;
#X connect 14 0 34 0;
#X connect 14 0 39 0;
#X connect 15 0 16 0;
#X connect 16 0 39 0;
#X connect 17 0 20 0;
#X connect 20 0 22 0;
#X connect 21 0 23 0;
#X connect 21 0 24 0;
#X connect 22 0 21 0;
#X connect 23 0 16 1;
#X connect 23 0 19 0;
#X connect 23 0 46 1;
#X connect 24 0 15 1;
#X connect 24 0 18 0;
#X connect 24 0 45 1;
#X connect 25 0 28 0;
#X connect 28 0 30 0;
#X connect 29 0 31 0;
#X connect 29 0 32 0;
#X connect 30 0 29 0;
#X connect 31 0 27 0;
#X connect 31 0 14 1;
#X connect 31 0 44 1;
#X connect 32 0 26 0;
#X connect 32 0 13 1;
#X connect 32 0 43 1;
#X connect 33 0 2 0;
#X connect 35 0 37 0;
#X connect 36 0 3 0;
#X connect 36 1 6 0;
#X connect 36 2 7 0;
#X connect 36 3 17 0;
#X connect 36 4 25 0;
#X connect 37 0 11 0;
#X connect 37 1 36 0;
#X connect 38 0 13 0;
#X connect 40 0 38 0;
#X connect 41 0 42 0;
#X connect 42 0 45 0;
#X connect 43 0 44 0;
#X connect 44 0 48 0;
#X connect 44 0 50 0;
#X connect 45 0 46 0;
#X connect 46 0 48 0;
#X connect 47 0 43 0;
#X connect 49 0 47 0;
