#N canvas 0 12 1904 1086 12;
#X obj 880 565 nbx 6 30 -1e+37 1e+37 0 0 rnd-seed empty empty 0 -8
0 10 #fcfcfc #000000 #000000 951715 256 0;
#X obj 840 520 cnv 15 130 40 empty empty 我见到的 10 16 0 28 #ffffff
#8a8a8a 0;
#X obj 372 15 loadbang;
#X obj 20 20 bng 19 250 50 0 empty bar0 生成断言 24 8 0 12 #c6feff
#000000 #000000;
#X obj 372 47 bng 19 250 50 0 empty empty 初始化 25 7 0 12 #ffc7c6
#000000 #000000;
#X obj 26 337 list split;
#X obj 59 373 list split 1;
#X obj 160 335 list split;
#X obj 193 365 list split 1;
#X obj 21 46 t b b b;
#X floatatom 22 412 5 0 0 0 - - -, f 5;
#X obj 22 435 moses 7;
#X obj 22 460 bng 19 250 50 0 empty empty empty 0 -10 0 12 #fcfcfc
#000000 #000000;
#X obj 67 460 bng 19 250 50 0 empty empty empty 0 -10 0 12 #fcfcfc
#000000 #000000;
#X obj 114 384 pack s s s;
#X msg 136 409 \$1\$2\$3;
#N canvas 78 78 450 250 (subpatch) 0;
#X array sub-prob 190 float 2 black black;
#X coords 0 1 190 0 80 30 1;
#X restore 70 140 graph;
#X msg 479 67 0 -1;
#X obj 479 115 list length;
#X floatatom 479 139 5 0 0 0 - - -, f 5;
#X obj 21 128 t l b;
#X msg 602 68 0 -1;
#X obj 602 116 list length;
#X floatatom 602 140 5 0 0 0 - - -, f 5;
#N canvas 78 78 450 250 (subpatch) 0;
#X array pred-prob 317 float 2 black black;
#X coords 0 1 317 0 80 30 1;
#X restore 160 100 graph;
#X obj 97 98 t l b;
#X obj 372 75 t b b b b b b;
#X obj 28 192 array random sub-prob;
#X obj 180 170 array random pred-prob;
#X obj 25 267 array get sub-prob;
#X obj 70 220 t f f;
#X obj 70 320 array set sub-prob;
#X floatatom 25 291 5 0 0 0 - - -, f 5;
#X msg 28 164 0 -1;
#X msg 180 142 0 -1;
#X msg 25 244 \$1 1;
#X msg 21 71 0 -1;
#X msg 97 40 0 -1;
#X obj 70 291 / 4;
#X obj 185 203 t f f;
#X floatatom 140 275 5 0 0 0 - - -, f 5;
#X msg 140 227 \$1 1;
#X obj 185 275 / 4;
#X obj 185 303 array set pred-prob;
#X obj 140 250 array get pred-prob;
#X msg 482 174 \; sub-prob resize \$1 \; sub-prob const 1;
#X msg 602 164 \; pred-prob resize \$1 \; pred-prob const 1;
#X obj 183 350 r rnd-seed;
#X msg 161 151 seed \$1;
#X obj 223 142 r rnd-seed;
#X obj 302 142 + 1;
#X msg 342 162 seed \$1;
#X floatatom 551 314 5 0 0 0 - - -, f 5;
#X msg 610 310 \; chord-prob resize \$1 \; chord-prob const 4;
#X obj 551 362 until;
#X obj 551 264 bng 19 250 50 0 empty empty empty 0 -10 0 12 #fcfcfc
#000000 #000000;
#X obj 551 388 f;
#X obj 582 388 + 1;
#X obj 551 338 t f b f;
#X msg 596 362 0;
#X floatatom 551 412 5 0 0 0 - - -, f 5;
#X obj 551 436 t b f;
#X obj 550 460 array set chord-prob;
#X obj 237 205 bng 19 250 50 0 empty bar0 生成和弦 26 8 0 12 #c6feff
#000000 #000000;
#X obj 294 311 array random chord-prob;
#X obj 350 290 r rnd-seed;
#X msg 423 264 seed \$1;
#X obj 429 290 + 4;
#X msg 260 308 0 -1;
#X msg 270 330 \$1 -1;
#X obj 717 280 value key;
#X msg 430 210 0 2 4 5 7 9 11;
#X obj 430 235 list split;
#X obj 250 230 t b b b b;
#X obj 460 286 list split 1;
#X obj 460 310 expr $f1+key;
#X floatatom 460 335 5 0 0 1 根音 - -, f 5;
#X floatatom 602 268 5 0 0 0 - - -, f 5;
#X obj 373 351 value root;
#X obj 360 380 list length;
#X msg 280 400 \; chord resize \$1;
#X obj 280 390 t l l;
#X obj 280 440 array set chord;
#X obj 552 240 text define chords;
#X obj 551 289 text size chords;
#X obj 270 355 text get chords;
#X obj 602 242 + 55;
#X msg 602 16 read predicates.txt;
#X msg 552 213 read chords.txt;
#X msg 479 15 read subjects.txt;
#X obj 479 41 text define subjects;
#X obj 602 42 text define predicates;
#X obj 602 93 text get predicates;
#X obj 479 92 text get subjects;
#X obj 21 99 text get subjects;
#X obj 97 69 text get predicates;
#X obj 20 570 tgl 24 0 empty empty 时钟 28 10 0 16 #feffc6 #000000
#000000 0 1;
#X floatatom 105 561 5 0 0 0 - - -, f 5;
#X obj 21 755 sel 0;
#X obj 21 782 f;
#X obj 54 772 + 1;
#X obj 107 750 mod 3;
#X floatatom 21 806 5 0 0 0 - - -, f 5;
#X msg 99 605 0;
#X obj 20 930 + 80;
#X obj 20 954 t f f b;
#X obj 21 706 counter;
#X obj 106 695 sel 0 1;
#X msg 106 726 0;
#X msg 19 1021 \$1 \$2;
#X obj 19 995 pack;
#X obj 110 1005 line;
#X obj 44 664 bpm 0.25;
#X obj 130 820 + 80;
#X obj 109 883 value tempo;
#X floatatom 144 492 5 0 0 1 实时速度（BPM） rt-tempo -, f 5
;
#X obj 50 920 expr 480000/($f1+$f2);
#X obj 110 1030 s rt-tempo;
#X obj 44 640 r rt-tempo;
#X obj 21 829 sel 0 1 2;
#X obj 136 597 t b b b b;
#X obj 235 654 value tempo;
#X obj 235 678 bpm 4;
#X floatatom 235 702 8 0 0 0 - - -, f 8;
#X obj 355 682 value bar-dur;
#X obj 248 785 metro;
#X obj 270 724 value bar-dur;
#X obj 370 710 t b b b;
#X obj 270 755 /;
#X obj 248 818 euclid, f 11;
#X obj 492 689 t b f;
#X msg 302 785 0;
#X msg 213 736 0, f 2;
#X msg 377 768 number \$1;
#X floatatom 450 723 5 0 0 1 Steps - -, f 5;
#X floatatom 450 750 5 0 0 1 Pulses - -, f 5;
#X obj 300 840 bng 19 250 50 0 empty empty empty 0 -10 0 12 #fcfcfc
#000000 #000000;
#X obj 248 753 tgl 19 0 empty empty empty 0 -10 0 12 #dfdfdf #000000
#000000 0 1;
#X msg 244 736 1, f 2;
#X obj 602 217 srand 5 16;
#X obj 22 389 srand 2 10;
#X obj 374 326 srand 6 7;
#X obj 600 434 srand 3 5;
#X obj 130 795 srand 7 40;
#X obj 21 890 srand 8 40;
#X obj 460 660 srand 9 7;
#X obj 440 620 srand 10;
#X obj 200 548 bng 19 250 50 0 empty empty Kick 25 7 0 12 #c7c6ff #000000
#000000;
#X obj 450 690 + 2;
#X obj 530 544 bng 19 250 50 0 empty empty Knob 25 7 0 12 #c7c6ff #000000
#000000;
#X obj 530 724 osc~;
#X obj 530 699 vline~;
#X obj 586 724 vline~;
#X obj 530 750 *~;
#X obj 440 552 srand 11 100;
#X obj 440 600 sel 1;
#X obj 240 921 metro;
#X obj 327 881 value bar-dur;
#X obj 194 844 t b b b;
#X obj 327 911 /;
#X obj 200 953 euclid, f 11;
#X obj 380 800 t b f;
#X msg 232 875 0, f 2;
#X floatatom 200 980 5 0 0 0 - - -, f 5;
#X msg 350 955 number \$1;
#X floatatom 430 896 5 0 0 1 Steps - -, f 5;
#X floatatom 430 923 5 0 0 1 Pulses - -, f 5;
#X obj 250 980 bng 19 250 50 0 empty empty empty 0 -10 0 12 #fcfcfc
#000000 #000000;
#X obj 293 884 tgl 19 0 empty empty empty 0 -10 0 12 #dfdfdf #000000
#000000 0 1;
#X msg 262 875 1, f 2;
#X obj 480 850 bng 19 250 50 0 empty empty Snare 25 7 0 12 #c7c6ff
#000000 #000000;
#X obj 440 772 srand 12 7;
#X obj 210 1030 srand 13;
#X obj 440 800 expr ($f1+2)*2;
#X obj 359 929 srand 14;
#X obj 440 525 t b b;
#X obj 440 576 <;
#X obj 530 568 t b b;
#X obj 530 592 srand 16 1000;
#X obj 620 557 srand 17 1000;
#X obj 530 645 pack;
#X msg 530 673 \$1 \, \$2 10 \, 80 40 10;
#X obj 540 490 srand 15 50;
#X obj 540 514 + 50;
#X obj 590 650 expr~ ($v1/2)+1;
#X msg 740 670 0;
#X obj 669 653 snapshot~;
#X obj 590 626 osc~ 0.7;
#X msg 586 699 \$1 2 \, 0.5 8 2 \, 0 120 10;
#X obj 669 677 pow 2;
#X obj 590 770 panner~;
#X obj 654 813 line;
#X obj 650 770 snapshot~;
#X obj 638 748 expr~ ($v1/2)+0.5;
#X msg 650 794 \$1 130;
#X obj 638 725 osc~ 2;
#X obj 682 860 spigot;
#X msg 694 796 1;
#X msg 715 813 0;
#N canvas 0 50 450 250 (subpatch) 0;
#X array kick1 22978 float 0 black black;
#X coords 0 1 22977 -1 80 50 1;
#X restore 263 549 graph;
#X msg 762 19 read -resize samples/kick1.wav kick1;
#X obj 760 130 soundfiler;
#X obj 353 601 osc~;
#X obj 353 577 vline~;
#X obj 310 609 *~;
#X msg 353 550 600 \, 200 10 \, 80 40 10;
#X obj 200 620 tabplay~ kick1;
#X obj 1750 700 hsl 120 19 0.01 1 1 0 drums-gain empty empty -2 -10
0 12 #fcfcfc #000000 #000000 11900 1;
#X obj 620 830 throw~ drums-l;
#X obj 510 810 throw~ drums-r;
#X obj 310 650 throw~ drums;
#X obj 280 476 vline~;
#X msg 762 45 read -resize samples/snare1.wav snare1;
#N canvas 0 50 450 250 (subpatch) 0;
#X array snare1 12230 float 0 black black;
#X coords 0 1 12229 -1 80 50 1;
#X restore 550 850 graph;
#X obj 708 1026 vline~;
#X obj 641 1007 *~;
#X obj 749 839 noise~;
#X obj 640 980 vcf~ 2;
#X obj 279 1033 tabplay~ snare1;
#X obj 330 1004 bob~;
#X obj 280 1010 t b b;
#X obj 550 910 srand 18 4500;
#X obj 580 990 + 500;
#X obj 611 1005 / 10;
#X obj 795 878 vline~;
#X obj 708 951 srand 20 90;
#X obj 708 976 expr pow(($f1/100)+0.1 \, 2);
#X obj 585 935 srand 19 30;
#X obj 640 1030 *~ 0.5;
#X msg 770 860 3000 \, 500 100;
#X msg 708 1000 \$1 2 \, 0.8 8 2 \, 0 120 10;
#X obj 400 1004 *~ 1;
#X obj 310 632 *~ 1;
#X obj 200 591 sel 0;
#X msg 350 480 1;
#X msg 280 450 1 2 \, 0.5 8 2 \, 0 120 10;
#X msg 507 623 0.7;
#X obj 430 450 srand 21 600;
#X obj 430 498 value knobtone;
#X obj 530 615 expr $f1+knobtone;
#X obj 620 580 expr $f1+knobtone+500;
#X floatatom 430 474 5 0 0 0 - - -, f 5;
#X obj 1020 230 tabread4~ twisted;
#X obj 825 432 vline~;
#X obj 825 269 srand 22;
#X obj 728 260 soundfiler;
#X msg 648 142 read -resize samples/twisted.wav twisted;
#X obj 875 243 bng 19 250 50 0 empty empty Twisted\ Drum 25 8 0 12
#c7c6ff #000000 #000000;
#X obj 825 380 pack;
#X msg 825 406 \$1 \, \$2 150;
#X obj 825 295 t f f b;
#X obj 1020 305 *~;
#X obj 911 416 vline~;
#X obj 1020 281 osc~;
#X obj 871 318 srand 23 200;
#X obj 1019 336 expr~ round($v1*8)/8;
#X obj 1190 416 tabread4~ twisted;
#X obj 1190 391 vline~;
#X obj 1190 338 pack;
#X msg 1190 364 \$1 \, \$2 150;
#X obj 1160 215 t f f b;
#X obj 1150 436 *~;
#X obj 1150 411 osc~;
#X obj 1190 440 expr~ $v1*50+80;
#X obj 1150 460 expr~ round($v1*8)/8;
#X obj 1160 190 srand 24;
#X obj 1250 340 srand 25 200;
#N canvas 0 50 450 250 (subpatch) 0;
#X array twisted-dyn 6 float 0 black black;
#X coords 0 9 5 0 120 50 1;
#X restore 891 264 graph;
#X obj 692 382 until;
#X obj 692 408 f;
#X obj 722 408 + 1;
#X obj 692 357 t f b f;
#X msg 736 382 0;
#X floatatom 692 432 5 0 0 0 - - -, f 5;
#X obj 692 455 t b f;
#X obj 690 480 array set twisted-dyn;
#X obj 741 454 srand 26 10;
#X msg 610 380 \; twisted-dyn resize \$1 \; twisted-dyn const 9;
#X obj 1150 483 *~;
#X obj 1021 352 *~;
#X obj 1750 720 hsl 120 19 0.01 1 1 0 twisted-gain empty empty -2 -10
0 12 #fcfcfc #000000 #000000 10978 1;
#X obj 1010 480 throw~ twisted-r;
#X obj 1020 408 throw~ twisted-l;
#X obj 1154 277 tabread4 twisted-dyn;
#X obj 825 242 t b f;
#X obj 1154 301 / 9;
#X obj 792 343 spigot;
#X msg 780 310 0;
#X msg 820 320 1;
#X obj 21 730 t f f;
#N canvas 789 569 450 300 stopper 0;
#X obj 51 128 f;
#X obj 84 128 + 1;
#X obj 51 152 >=;
#X obj 84 152 * 2;
#X msg 70 80 0;
#X obj 51 176 sel 1;
#X obj 40 30 inlet;
#X obj 87 29 inlet;
#X obj 135 28 inlet;
#X obj 43 206 outlet;
#X connect 0 0 1 0;
#X connect 1 0 0 1;
#X connect 1 0 2 0;
#X connect 2 0 5 0;
#X connect 3 0 2 1;
#X connect 4 0 0 1;
#X connect 5 0 9 0;
#X connect 6 0 0 0;
#X connect 7 0 4 0;
#X connect 8 0 3 0;
#X restore 166 778 pd stopper;
#N canvas 789 569 450 300 stopper 0;
#X obj 51 128 f;
#X obj 84 128 + 1;
#X obj 51 152 >=;
#X obj 84 152 * 2;
#X msg 70 80 0;
#X obj 51 176 sel 1;
#X obj 40 30 inlet;
#X obj 87 29 inlet;
#X obj 135 28 inlet;
#X obj 43 206 outlet;
#X connect 0 0 1 0;
#X connect 1 0 0 1;
#X connect 1 0 2 0;
#X connect 2 0 5 0;
#X connect 3 0 2 1;
#X connect 4 0 0 1;
#X connect 5 0 9 0;
#X connect 6 0 0 0;
#X connect 7 0 4 0;
#X connect 8 0 3 0;
#X restore 183 901 pd stopper;
#X obj 157 627 s bar0;
#X obj 117 587 s clock;
#X obj 753 230 r bar0;
#X obj 70 800 s bar2;
#X obj 700 230 r bar2;
#X obj 732 343 r clock;
#X obj 692 305 r bar0;
#X msg 890 390 1 2 \, 0.5 18 2 \, 0 \$1 20;
#X obj 1070 290 expr (1-$f1)*100+100, f 16;
#X obj 1020 380 flanger~ 3 0.8;
#X msg 780 380 start;
#X msg 780 406 stop;
#X obj 1010 450 flanger~ 3 0.8;
#X obj 1550 363 array size chord;
#X obj 1540 310 bng 19 250 50 0 empty bar0-2 Karplus-Strong\ Chord
25 10 0 12 #c6ffc7 #000000 #000000;
#X obj 1550 390 until;
#X obj 1550 414 f;
#X obj 1582 414 + 1;
#X msg 1581 391 0;
#X obj 1550 335 t b b;
#X obj 1550 439 t f f;
#X obj 1560 468 array get chord;
#X obj 1560 492 expr $f1+root;
#X obj 1540 526 pack f f f f f f;
#X obj 1683 348 srand 27 100;
#X obj 1683 376 srand 28 100;
#X obj 1620 406 srand 29 3000;
#X obj 1620 430 + 2000;
#X obj 1680 436 srand 30 16;
#X obj 1680 460 expr pow($f1 \, 2)+2;
#X obj 1490 551 clone karp~ 4;
#X obj 143 652 s bar0-1;
#X obj 1480 591 rev2~ 80 90 4000 20;
#X obj 1655 607 rev2~ 80 90 4000 20;
#X msg 1100 360 0;
#X msg 1138 360 0.5;
#X obj 1130 876 phasor~;
#X obj 1130 900 expr~ ($v1*2)-1;
#X obj 1010 960 *~;
#X obj 1074 755 value root;
#X obj 1074 713 bng 19 250 50 0 empty empty Bass 25 10 0 12 #c6ffc7
#000000 #000000;
#X obj 1210 874 vline~;
#X msg 1210 850 1 5 \, 0.7 200 5;
#X obj 1074 812 t f b;
#X obj 1080 846 +;
#X obj 1080 910 mtof;
#X obj 1160 980 bng 19 250 50 0 empty empty empty 0 -10 0 12 #fcfcfc
#000000 #000000;
#X obj 1121 972 f;
#X obj 1080 884 line;
#X obj 1121 996 - 12;
#X msg 1120 1020 \$1 100;
#X msg 1264 872 0.9 10 \, 0 90 10;
#X obj 1140 940 vcf~ 1;
#X obj 1152 847 vline~;
#X msg 1212 827 5000 10 \, 300 300 10;
#X obj 1060 960 r bar2;
#X obj 1150 726 srand 31 6;
#X obj 1150 750 sel 0 1 2 3 4 5;
#X msg 1160 820 0;
#X msg 1170 780 12;
#X msg 1200 780 2;
#X floatatom 1243 807 5 0 0 0 - - -, f 5;
#X obj 1074 781 - 36;
#X obj 1200 940 srand 32 10;
#X obj 1200 988 sel 1;
#X obj 1200 964 < 8;
#X obj 1009 1012 throw~ bass;
#X obj 1009 988 *~ 1;
#X obj 1750 740 hsl 120 19 0.01 1 1 0 bass-gain empty empty -2 -10
0 12 #fcfcfc #000000 #000000 10109 1;
#X obj 460 1010 throw~ snare-l;
#X obj 570 960 throw~ snare-r;
#X obj 855 757 bng 19 250 50 0 empty empty Hi-hat 25 10 0 12 #c7c6ff
#000000 #000000;
#X msg 760 74 read -resize samples/o-hat1.wav o-hat1;
#X msg 760 100 read -resize samples/c-hat1.wav c-hat1;
#N canvas 0 50 450 250 (subpatch) 0;
#X array o-hat1 9680 float 0 black black;
#X coords 0 1 9679 -1 80 50 1;
#X restore 990 820 graph;
#N canvas 0 50 450 250 (subpatch) 0;
#X array c-hat1 6168 float 0 black black;
#X coords 0 1 6167 -1 80 50 1;
#X restore 990 880 graph;
#X obj 900 934 tabplay~ o-hat1;
#X obj 1018 934 tabplay~ c-hat1;
#X obj 900 998 panner~ 0.1;
#X obj 900 1024 throw~ drums-l;
#X obj 1009 1024 throw~ drums-r;
#X obj 895 816 <;
#X obj 950 795 srand 34 100;
#X obj 855 786 srand 33 100;
#X obj 965 756 r bar0;
#X floatatom 950 820 5 0 0 0 - - -, f 5;
#X obj 895 841 sel 1;
#X obj 900 870 srand 35 100;
#X obj 960 910 <;
#X obj 847 902 r bar0;
#X floatatom 800 954 5 0 0 0 - - -, f 5;
#X obj 800 930 srand 36 100;
#X obj 900 909 sel 0 1;
#X floatatom 430 950 5 0 0 1 Rotation - -, f 5;
#N canvas 0 50 450 250 (subpatch) 0;
#X array karp-samp-l 115200 float 0 black black;
#X coords 0 4 115199 -4 160 80 1;
#X restore 1570 130 graph;
#X obj 143 680 s bar0-2;
#X obj 1800 20 r bar0-1;
#X obj 1780 46 value bar-dur;
#X msg 1060 988 0 5;
#X obj 1800 92 * 44100;
#X obj 1790 200 samplerate~;
#X obj 1760 170 r pd-dsp-started;
#X obj 1800 68 / 1000;
#X obj 1480 660 tabwrite~ karp-samp-l;
#X msg 1724 116 \; karp-samp-l resize \$1 \; karp-samp-r resize \$1
;
#N canvas 312 312 450 250 (subpatch) 0;
#X array karp-samp-r 115200 float 0 black black;
#X coords 0 4 115199 -4 160 80 1;
#X restore 1520 220 graph;
#X obj 1490 630 *~ 1;
#X obj 1550 640 *~ 1;
#X obj 1650 640 tabwrite~ karp-samp-r;
#X obj 1620 760 throw~ karp-l;
#X obj 1620 730 throw~ karp-r;
#X obj 1750 680 hsl 120 19 0.01 1 1 0 empty empty empty -2 -10 0 12
#fcfcfc #000000 #000000 4630 1;
#X obj 1510 930 catch~ karp-l;
#X obj 1541 954 catch~ karp-r;
#X msg 1670 530 start;
#X obj 23 860 s bar1;
#X obj 1760 406 r bar1;
#X msg 1660 570 stop;
#X obj 130 850 s clock-off;
#X obj 1250 900 r clock-off;
#X obj 1670 490 r clock-off;
#X obj 1760 430 t b b;
#X obj 1778 375 tgl 19 0 empty empty empty 0 -10 0 12 #fcfcfc #000000
#000000 0 1;
#X msg 1770 320 1;
#X msg 1707 226 0;
#X obj 1700 400 r bar2;
#X obj 1808 324 metro;
#X obj 1770 290 r rt-tempo;
#X obj 1730 310 bpm;
#X obj 1730 256 expr 1/pow(2 \, $f1);
#X obj 1800 226 srand 37 4;
#X obj 1730 285 f;
#X obj 1751 229 t b b;
#X obj 1808 348 f;
#X obj 1841 348 + 1;
#X obj 1830 420 mod 8;
#X msg 1840 310 0;
#X obj 1750 500 clone karpclip~ 8;
#X obj 1830 380 pack;
#X floatatom 1830 450 5 0 0 0 - - -, f 5;
#X obj 1720 590 echo~ 500 0.6 0.5;
#X obj 1800 530 r rt-tempo;
#X obj 1804 550 bpm 1;
#X obj 1690 550 *~ 0.5;
#X obj 1740 560 *~ 0.5;
#X obj 1113 105 array size chord;
#X obj 1113 132 until;
#X obj 1113 156 f;
#X obj 1145 156 + 1;
#X obj 1230 191 t f f;
#X obj 1230 220 array get chord;
#X msg 1159 129 0;
#X obj 1340 20 s~ fs-vol;
#X obj 1290 244 expr $f1+root-12;
#X obj 1440 129 pack f f;
#X obj 1413 42 vline~;
#X obj 1290 268 t f b;
#X obj 1340 270 srand 39 3;
#X obj 1440 100 expr $f1+($f2-1)*12;
#N canvas 0 50 450 250 (subpatch) 0;
#X array noise1-l 259 float 0 black black;
#X coords 0 1 258 -1 100 50 1;
#X restore 1120 10 graph;
#X obj 1220 60 noise~;
#X obj 1193 83 lop~ 1000;
#X obj 1050 80 bng 19 250 50 0 empty empty Synth 25 8 0 12 #c6ffc7
#000000 #000000;
#X obj 1070 50 t b b;
#X obj 1387 158 clone noisesynth~ 4;
#X obj 1248 723 srand 40 100;
#X obj 1248 746 <;
#X obj 1287 688 r bar0;
#X obj 1284 660 sel 1;
#X floatatom 1330 660 5 0 0 0 - - -, f 5;
#X obj 1281 746 srand 41 60;
#X obj 1113 77 t b b b;
#X obj 1393 133 + 90;
#X obj 1293 152 pack f f f;
#X obj 1193 155 t b f f;
#X obj 1280 170 srand 43 100;
#X obj 1280 194 / 100;
#X obj 1193 131 srand 42 30;
#N canvas 0 50 450 250 (subpatch) 0;
#X array noise1-r 259 float 0 black black;
#X coords 0 1 258 -1 100 50 1;
#X restore 1230 10 graph;
#X msg 950 120 \; noise1-l resize 259 \; noise1-r resize 259;
#X obj 1283 65 del 10 1 msec;
#X obj 1233 114 tabwrite~ noise1-l;
#X obj 1283 93 tabwrite~ noise1-r;
#X obj 1360 220 throw~ synth-l;
#X obj 1400 240 throw~ synth-r;
#X obj 1750 760 hsl 120 19 0.01 1 1 0 synth-gain empty empty -2 -10
0 12 #fcfcfc #000000 #000000 5950 1;
#X obj 1020 254 expr~ $v1*50+$f2;
#X obj 890 473 + 60;
#X obj 890 450 srand 44 60;
#X msg 692 332 6;
#X obj 1154 252 expr ($f1/16)*4+1;
#X obj 1390 190 rev3~ 100 90 1000 20;
#X obj 750 210 soundfiler;
#X msg 797 175 read -resize samples/amenbreak.wav amenbreak;
#N canvas 46 750 466 423 amenbreak 0;
#X obj 128 52 inlet;
#X obj 179 51 inlet;
#X obj 126 77 bng 19 250 50 0 empty empty empty 0 -10 0 12 #fcfcfc
#000000 #000000;
#X obj 275 105 bpm 0.25;
#X obj 126 100 srand 45 16;
#X obj 128 126 expr $f2*($f1/16);
#X msg 123 281 \$1 \, \$2 \$3;
#X obj 126 254 pack f f f;
#X obj 128 155 t f f;
#X obj 123 305 vline~;
#X obj 123 329 tabread4~ amenbreak;
#X obj 123 353 outlet~;
#X obj 275 81 r rt-tempo;
#X obj 154 201 expr $f2/16+$f1;
#X connect 0 0 2 0;
#X connect 1 0 5 1;
#X connect 1 0 13 1;
#X connect 2 0 4 0;
#X connect 3 0 7 2;
#X connect 4 0 5 0;
#X connect 5 0 8 0;
#X connect 6 0 9 0;
#X connect 7 0 6 0;
#X connect 8 0 7 0;
#X connect 8 1 13 0;
#X connect 9 0 10 0;
#X connect 10 0 11 0;
#X connect 12 0 3 0;
#X connect 13 0 7 1;
#X restore 700 886 pd amenbreak;
#X msg 830 200 \; amenbreak normalize 1;
#X obj 735 173 t b b;
#N canvas 678 710 466 423 amenbreak 0;
#X obj 128 52 inlet;
#X obj 179 51 inlet;
#X obj 126 77 bng 19 250 50 0 empty empty empty 0 -10 0 12 #fcfcfc
#000000 #000000;
#X obj 275 105 bpm 0.25;
#X obj 128 126 expr $f2*($f1/16);
#X msg 123 281 \$1 \, \$2 \$3;
#X obj 126 254 pack f f f;
#X obj 128 155 t f f;
#X obj 123 305 vline~;
#X obj 123 329 tabread4~ amenbreak;
#X obj 123 353 outlet~;
#X obj 275 81 r rt-tempo;
#X obj 154 201 expr $f2/16+$f1;
#X obj 126 100 srand 46 16;
#X connect 0 0 2 0;
#X connect 1 0 4 1;
#X connect 1 0 12 1;
#X connect 2 0 13 0;
#X connect 3 0 6 2;
#X connect 4 0 7 0;
#X connect 5 0 8 0;
#X connect 6 0 5 0;
#X connect 7 0 6 0;
#X connect 7 1 12 0;
#X connect 8 0 9 0;
#X connect 9 0 10 0;
#X connect 11 0 3 0;
#X connect 12 0 6 1;
#X connect 13 0 4 0;
#X restore 590 520 pd amenbreak;
#X obj 695 935 throw~ drums-l;
#X obj 660 610 throw~ drums-r;
#X obj 576 743 *~ 0.5;
#X obj 900 972 *~ 0.15;
#X obj 1314 411 until;
#X obj 1314 437 f;
#X obj 1345 437 + 1;
#X obj 1314 387 t f b f;
#X msg 1359 411 0;
#X floatatom 1314 461 5 0 0 0 - - -, f 5;
#X obj 1314 485 t b f;
#X obj 1419 385 array set arp-mel;
#X msg 1314 362 128;
#X obj 1470 360 srand 47 8;
#X obj 21 607 t f f b f;
#X obj 1461 410 srand 48 8;
#X obj 1200 490 array set arp-vol;
#X obj 1419 615 r bar0;
#X obj 1404 641 srand 49 128;
#X obj 1380 529 r clock;
#X obj 1380 560 spigot;
#X msg 1434 551 1;
#X msg 1434 579 0;
#X obj 1450 520 r bar2;
#X obj 1380 600 mod;
#X obj 1360 666 srand 50 3;
#X obj 1381 716 +;
#X obj 1360 760 mod 128;
#X obj 1407 727 +;
#X obj 1460 755 mod 128;
#X obj 1360 809 t f f;
#X obj 1370 819 mod 4;
#X obj 1370 846 array get chord;
#X obj 1360 910 +;
#X obj 1400 900 * 12;
#X obj 1250 980 mtof;
#X obj 1320 923 *~;
#X obj 1480 864 vline~;
#X obj 1500 680 srand 51 128;
#X obj 1360 690 expr pow(2 \, $f1+2);
#X obj 1370 870 expr $f1+root;
#X obj 1250 1003 phasor~;
#X obj 1250 1028 expr~ if($v1<0.5 \, $v1*4-1 \, $v1*(-4)+3);
#X obj 400 1028 rev2~ 85 75 3000 20;
#X msg 1413 19 \$1 \$2 \, 0.8 90 \$2 \, 0 500 \$3;
#X msg 1380 300 \; arp-mel resize \$1 \; arp-vol resize \$1 \; arp-pan
resize \$1;
#X obj 1151 544 array set arp-pan;
#X obj 1200 518 srand 52 8;
#X obj 1440 740 +;
#X obj 1526 727 mod 128;
#X obj 1460 710 srand 53 128;
#X obj 1540 780 expr $f1/7;
#X obj 1320 1001 throw~ arp-l;
#X obj 1380 980 throw~ arp-r;
#X obj 1320 947 panner~;
#X obj 1380 950 *~ 1;
#X obj 1320 973 *~ 1;
#X obj 1750 780 hsl 120 19 0.01 1 1 0 arp-gain empty empty -2 -10 0
12 #fcfcfc #000000 #000000 5950 1;
#X obj 1580 1020 tomaster~;
#X obj 372 99 s init;
#X obj 1530 1020 r init;
#X msg 1660 820 1;
#X msg 1680 850 0.7;
#X msg 1660 790 0.06;
#X msg 1680 890 0.5;
#X msg 1683 924 0.1;
#X msg 1680 960 0.1;
#X obj 1730 700 tgl 19 0 drums-mute empty empty 0 -10 0 12 #606060
#ffffff #000000 0 1;
#X obj 1730 720 tgl 19 0 twisted-mute empty empty 0 -10 0 12 #606060
#ffffff #000000 0 1;
#X obj 1730 680 tgl 19 0 empty empty empty 0 -10 0 12 #606060 #ffffff
#000000 0 1;
#X obj 1730 740 tgl 19 0 bass-mute empty empty 0 -10 0 12 #606060 #ffffff
#000000 0 1;
#X obj 1730 760 tgl 19 0 synth-mute empty empty 0 -10 0 12 #606060
#ffffff #000000 0 1;
#X obj 1730 780 tgl 19 0 arp-mute empty empty 0 -10 0 12 #606060 #ffffff
#000000 0 1;
#X obj 1750 840 tgl 36 0 empty mute Mute 3 -15 0 16 #606060 #ffffff
#000000 1 1;
#X obj 1739 941 master~;
#X msg 1739 908 0.1;
#X obj 1740 970 dac~, f 7;
#X obj 1330 610 bng 19 250 50 0 empty empty Arp 25 10 0 12 #c6ffc7
#000000 #000000;
#X text 340 862 > 复合节奏（欧几里得）;
#X obj 780 520 vsl 30 300 0 1 0 0 slider1 slider1-init empty 0 -9 0
12 #ffffff #ff8300 #000000 0 1;
#X obj 1520 50 r slider1;
#X obj 1413 70 max~;
#X obj 1520 116 vline~;
#X msg 1520 80 \$1 50;
#X obj 1574 83 line;
#X obj 1423 818 div 4;
#X obj 1630 666 r slider1;
#X msg 1480 840 \$1 \$2 \, 0 100 \$2;
#X obj 1480 810 pack;
#X floatatom 1590 720 5 0 0 0 - - -, f 5;
#X obj 1460 780 tabread arp-vol;
#X obj 1360 787 tabread arp-mel;
#X obj 1527 753 tabread arp-pan;
#X obj 1630 700 expr $f1*50+5;
#X obj 1580 800 r slider1;
#X msg 1540 860 \$1 50;
#X obj 1540 886 line;
#X floatatom 1540 910 5 0 0 0 - - -, f 5;
#X obj 1590 990 hip~ 50;
#X obj 1600 890 hip~ 50;
#X obj 1549 827 expr $f1*4000;
#X msg 1597 48 \$1 50;
#X obj 1647 46 line;
#X obj 1450 70 r slider2;
#X obj 1574 103 s fs-shape;
#X obj 1600 78 s fs-pulse;
#X obj 1520 140 *~ 1;
#X obj 79 967 expr 1-$f1;
#X obj 72 1003 s mute;
#X msg 1430 951 \$1 50;
#X obj 1430 900 r slider2;
#X obj 1430 924 expr 1-$f1;
#X obj 1470 990 line;
#X obj 1683 15 r slider-init;
#X msg 1683 39 0;
#X obj 1683 63 s slider2-init;
#X obj 1710 90 s slider1-init;
#X obj 700 910 *~ 0.6;
#X obj 590 540 *~ 0.6;
#X obj 1800 840 vsl 19 199 0.01 1 1 0 empty empty empty 0 -9 0 12 #dfdfdf
#0400ff #000000 12100 1;
#X obj 1830 840 vu 19 200 empty empty -1 -10 0 12 #404040 #000000 1
0;
#X obj 1739 997 env~;
#X obj 1739 1021 - 90;
#X obj 840 600 tgl 40 0 start empty empty 55 25 0 40 #ffe3c6 #0400ff
#606060 0 1;
#X obj 318 194 r start;
#X obj 380 200 sel 1;
#X obj 320 220 t f f;
#X obj 1020 510 array define amenbreak;
#X obj 950 200 array define twisted;
#X obj 1400 440 array define arp-mel;
#X obj 1400 465 array define arp-vol;
#X obj 1400 490 array define arp-pan;
#X obj 260 20 s slider-init;
#X symbolatom 206 399 10 0 0 0 - - -, f 10;
#X symbolatom 66 409 10 0 0 0 - - -, f 10;
#X msg 22 484 symbol 是, f 10;
#X msg 40 510 symbol 不是, f 11;
#X symbolatom 23 541 10 0 0 0 - - -, f 10;
#X obj 176 431 print Assertion;
#X obj 460 360 r rnd-seed;
#X obj 430 430 s title-seed;
#X obj 430 390 makefilename %d;
#X msg 400 420 label 第\$1个疯人, f 16;
#X obj 840 600 cnv 15 70 40 empty title-toggle 说： 10 16 0 28 #ffffff
#8a8a8f 0;
#X obj 910 600 cnv 15 350 40 empty title-assert ······ 0 16 0
28 #ffffff #000004 0;
#X obj 840 670 cnv 15 150 20 empty empty #DemoJam!’2 10 10 0 18 #ffffff
#8a8a8a 0;
#X msg 104 465 label \$1;
#X obj 170 460 s title-assert;
#X obj 106 439 list;
#X obj 1243 784 tabread chord;
#X obj 402 174 s title-toggle;
#X msg 140 40 list ······;
#X obj 120 520 hradio 19 1 0 16 empty empty empty 0 -10 0 12 #fcfcfc
#000000 #000000 9;
#N canvas 0 50 450 250 (subpatch) 0;
#X array chord-prob 24 float 2 black black;
#X coords 0 4 24 0 80 30 1;
#X restore 280 260 graph;
#N canvas 0 50 450 250 (subpatch) 0;
#X array chord 4 float 2 black black;
#X coords 0 14 4 -4 50 50 1;
#X restore 370 230 graph;
#X obj 320 840 hradio 19 0 0 7 empty empty empty 0 -10 0 12 #fcfcfc
#000000 #000000 3;
#X obj 270 980 hradio 19 0 0 12 empty empty empty 0 -10 0 12 #fcfcfc
#000000 #000000 5;
#X floatatom 244 844 5 0 0 0 - - -, f 5;
#X msg 260 100 color \$1 -9.07944e+06;
#X obj 350 120 expr -65536*256;
#X msg 240 70 color \$1 -2;
#X obj 240 46 expr -65536*256;
#X obj 840 650 cnv 15 150 20 empty empty @一我EVOR 10 10 0 18 #ffffff
#8a8a8a 0;
#X obj 750 520 bng 30 250 50 0 slider-init empty Reset=> -60 2 0 12
#dfdfdf #000000 #000000;
#N canvas 1988 262 752 803 mixer~ 0;
#X obj 222 164 catch~ drums;
#X obj 381 246 hsl 120 19 0 1 0 0 empty drums-gain empty -2 -10 0 12
#fcfcfc #000000 #000000 11900 1;
#X obj 317 164 catch~ drums-l;
#X obj 317 192 catch~ drums-r;
#X obj 361 346 hsl 120 19 0 1 0 0 empty twisted-gain empty -2 -10 0
12 #fcfcfc #000000 #000000 8329 1;
#X obj 223 296 catch~ twisted-l;
#X obj 252 322 catch~ twisted-r;
#X obj 381 406 hsl 120 19 0.01 1 1 0 empty bass-gain empty -2 -10 0
12 #fcfcfc #000000 #000000 10109 1;
#X obj 223 385 catch~ bass;
#X obj 224 67 catch~ snare-l;
#X obj 333 66 catch~ snare-r;
#X obj 222 121 throw~ drums-l;
#X obj 332 121 throw~ drums-r;
#X obj 226 94 panner2~ 0.65;
#X obj 381 496 hsl 120 19 0.01 1 1 0 empty synth-gain empty -2 -10
0 12 #fcfcfc #000000 #000000 5950 1;
#X obj 222 451 catch~ synth-l;
#X obj 252 476 catch~ synth-r;
#X obj 391 586 hsl 120 19 0.01 1 1 0 empty arp-gain empty -2 -10 0
12 #fcfcfc #000000 #000000 5950 1;
#X obj 223 546 catch~ arp-l;
#X obj 254 570 catch~ arp-r;
#X obj 221 259 tomaster~;
#X obj 222 350 tomaster~;
#X obj 223 417 tomaster~;
#X obj 222 502 tomaster~;
#X obj 220 590 tomaster~;
#X obj 121 226 tgl 19 0 empty drums-mute empty 0 -10 0 12 #606060 #ffffff
#000000 0 1;
#X obj 141 326 tgl 19 0 empty twisted-mute empty 0 -10 0 12 #606060
#ffffff #000000 0 1;
#X obj 171 406 tgl 19 0 empty bass-mute empty 0 -10 0 12 #606060 #ffffff
#000000 0 1;
#X obj 131 486 tgl 19 0 empty synth-mute empty 0 -10 0 12 #606060 #ffffff
#000000 0 1;
#X obj 131 556 tgl 19 0 empty arp-mute empty 0 -10 0 12 #606060 #ffffff
#000000 0 1;
#X obj 80 70 r slider1;
#X msg 80 125 \$1 50;
#X obj 80 151 line;
#X obj 222 227 lop~ 500;
#X obj 308 227 lop~ 500;
#X floatatom 80 175 5 0 0 0 - - -, f 5;
#X obj 50 97 expr ($f1-1)*(-19500)+500;
#X connect 0 0 33 0;
#X connect 0 0 34 0;
#X connect 1 0 20 2;
#X connect 2 0 33 0;
#X connect 3 0 34 0;
#X connect 4 0 21 2;
#X connect 5 0 21 0;
#X connect 6 0 21 1;
#X connect 7 0 22 2;
#X connect 8 0 22 0;
#X connect 8 0 22 1;
#X connect 9 0 13 0;
#X connect 10 0 13 1;
#X connect 13 0 11 0;
#X connect 13 1 12 0;
#X connect 14 0 23 2;
#X connect 15 0 23 0;
#X connect 16 0 23 1;
#X connect 17 0 24 2;
#X connect 18 0 24 0;
#X connect 19 0 24 1;
#X connect 25 0 20 3;
#X connect 26 0 21 3;
#X connect 27 0 22 3;
#X connect 28 0 23 3;
#X connect 29 0 24 3;
#X connect 30 0 36 0;
#X connect 31 0 32 0;
#X connect 32 0 33 1;
#X connect 32 0 34 1;
#X connect 32 0 35 0;
#X connect 33 0 20 0;
#X connect 34 0 20 1;
#X connect 36 0 31 0;
#X restore 1670 1000 pd mixer~;
#X obj 1720 200 value sr;
#X obj 1190 312 expr $f1+sr*0.15*($f2/100);
#X obj 825 354 expr $f1+sr*0.15*($f2/100);
#X obj 1170 680 tgl 18 0 record empty Record 24 7 0 14 #fcfcfc #ff0000
#000000 0 1;
#X obj 840 560 cnv 15 190 40 empty title-seed 第951715个疯人
10 16 0 28 #ffffff #000000 0;
#X obj 810 520 vsl 30 300 1 0 0 0 slider2 slider2-init empty 0 -9 0
12 #ffffff #9c00ff #000000 29900 1;
#N canvas 1336 402 552 612 color 0;
#X obj 40 50 inlet;
#X obj 370 50 inlet;
#X obj 40 460 expr -65536*256;
#X msg 40 520 color \$1 \$2;
#X obj 370 90 t b b;
#X obj 40 489 pack;
#X msg 150 430 -5;
#X obj 40 549 s title-assert;
#X obj 40 90 t b b b b;
#X obj 40 130 srand 54 256;
#X obj 140 130 srand 55 256;
#X obj 240 130 srand 56 256;
#X obj 80 180 expr $f1*0.21+$f2*0.71+$f3*0.08;
#X obj 80 310 f;
#X obj 120 310 f;
#X obj 160 310 f;
#X obj 80 210 < 178;
#X obj 80 239 sel 0 1;
#X obj 100 270 t b b b;
#X obj 80 360 expr (-1)*($f1*65536+$f2*256+$f3);
#X connect 0 0 8 0;
#X connect 1 0 4 0;
#X connect 2 0 5 0;
#X connect 3 0 7 0;
#X connect 4 0 2 0;
#X connect 4 1 6 0;
#X connect 5 0 3 0;
#X connect 6 0 5 1;
#X connect 8 0 2 0;
#X connect 8 1 9 0;
#X connect 8 2 10 0;
#X connect 8 3 11 0;
#X connect 9 0 12 0;
#X connect 9 0 13 1;
#X connect 10 0 12 1;
#X connect 10 0 14 1;
#X connect 11 0 12 2;
#X connect 11 0 15 1;
#X connect 12 0 16 0;
#X connect 13 0 19 0;
#X connect 14 0 19 1;
#X connect 15 0 19 2;
#X connect 16 0 17 0;
#X connect 17 0 8 0;
#X connect 17 1 18 0;
#X connect 18 0 13 0;
#X connect 18 1 14 0;
#X connect 18 2 15 0;
#X connect 19 0 5 1;
#X restore 110 14 pd color;
#X msg 950 480 56;
#X connect 2 0 4 0;
#X connect 2 0 622 0;
#X connect 2 0 641 0;
#X connect 2 0 649 0;
#X connect 2 0 661 1;
#X connect 3 0 9 0;
#X connect 3 0 661 0;
#X connect 4 0 26 0;
#X connect 5 1 6 0;
#X connect 6 0 624 0;
#X connect 7 1 8 0;
#X connect 8 0 623 0;
#X connect 9 0 36 0;
#X connect 9 1 140 0;
#X connect 9 2 37 0;
#X connect 10 0 11 0;
#X connect 11 0 12 0;
#X connect 11 1 13 0;
#X connect 12 0 625 0;
#X connect 13 0 626 0;
#X connect 14 0 15 0;
#X connect 15 0 638 0;
#X connect 17 0 93 0;
#X connect 18 0 19 0;
#X connect 19 0 45 0;
#X connect 20 0 5 0;
#X connect 20 1 33 0;
#X connect 21 0 92 0;
#X connect 22 0 23 0;
#X connect 23 0 46 0;
#X connect 25 0 7 0;
#X connect 25 1 34 0;
#X connect 26 0 549 0;
#X connect 26 3 139 0;
#X connect 26 4 17 0;
#X connect 26 4 21 0;
#X connect 26 4 55 0;
#X connect 26 5 87 0;
#X connect 26 5 89 0;
#X connect 26 5 88 0;
#X connect 26 5 200 0;
#X connect 26 5 212 0;
#X connect 26 5 246 0;
#X connect 26 5 303 0;
#X connect 26 5 455 0;
#X connect 26 5 471 0;
#X connect 26 5 488 0;
#X connect 26 5 502 0;
#X connect 26 5 364 0;
#X connect 26 5 365 0;
#X connect 27 0 5 1;
#X connect 27 0 30 0;
#X connect 28 0 7 1;
#X connect 28 0 39 0;
#X connect 29 0 32 0;
#X connect 30 0 35 0;
#X connect 30 1 31 1;
#X connect 32 0 38 0;
#X connect 33 0 27 0;
#X connect 34 0 28 0;
#X connect 35 0 29 0;
#X connect 36 0 94 0;
#X connect 37 0 95 0;
#X connect 38 0 31 0;
#X connect 39 0 41 0;
#X connect 39 1 43 1;
#X connect 40 0 42 0;
#X connect 41 0 44 0;
#X connect 42 0 43 0;
#X connect 44 0 40 0;
#X connect 47 0 48 0;
#X connect 48 0 27 0;
#X connect 49 0 50 0;
#X connect 50 0 51 0;
#X connect 51 0 28 0;
#X connect 52 0 58 0;
#X connect 54 0 56 0;
#X connect 55 0 84 0;
#X connect 56 0 57 0;
#X connect 56 0 60 0;
#X connect 57 0 56 1;
#X connect 58 0 54 0;
#X connect 58 1 59 0;
#X connect 58 2 53 0;
#X connect 59 0 56 1;
#X connect 60 0 61 0;
#X connect 61 0 142 0;
#X connect 61 1 62 1;
#X connect 63 0 73 0;
#X connect 64 0 69 0;
#X connect 65 0 67 0;
#X connect 66 0 64 0;
#X connect 67 0 66 0;
#X connect 68 0 64 0;
#X connect 69 0 85 0;
#X connect 71 0 72 0;
#X connect 72 1 74 0;
#X connect 73 1 68 0;
#X connect 73 2 71 0;
#X connect 73 3 141 0;
#X connect 74 0 75 0;
#X connect 75 0 76 0;
#X connect 75 0 78 0;
#X connect 79 0 80 0;
#X connect 81 0 82 0;
#X connect 81 1 79 0;
#X connect 84 0 52 0;
#X connect 85 0 81 0;
#X connect 86 0 70 0;
#X connect 86 0 77 0;
#X connect 87 0 91 0;
#X connect 88 0 83 0;
#X connect 89 0 90 0;
#X connect 92 0 22 0;
#X connect 93 0 18 0;
#X connect 94 0 20 0;
#X connect 95 0 25 0;
#X connect 96 0 504 0;
#X connect 97 0 196 0;
#X connect 97 0 293 0;
#X connect 98 0 99 0;
#X connect 99 0 100 0;
#X connect 99 0 102 0;
#X connect 100 0 101 0;
#X connect 101 0 99 1;
#X connect 102 0 119 0;
#X connect 103 0 99 1;
#X connect 104 0 105 0;
#X connect 105 0 110 0;
#X connect 105 0 114 0;
#X connect 105 1 116 0;
#X connect 105 2 114 0;
#X connect 106 0 289 0;
#X connect 106 1 642 0;
#X connect 107 0 108 0;
#X connect 107 0 132 0;
#X connect 107 0 162 0;
#X connect 107 0 410 0;
#X connect 107 1 185 0;
#X connect 107 1 143 0;
#X connect 108 0 114 0;
#X connect 109 0 111 0;
#X connect 110 0 109 0;
#X connect 111 0 117 0;
#X connect 112 0 106 1;
#X connect 113 0 111 0;
#X connect 113 0 114 0;
#X connect 114 0 116 1;
#X connect 116 0 110 1;
#X connect 118 0 112 0;
#X connect 119 0 120 0;
#X connect 119 0 198 0;
#X connect 119 1 407 0;
#X connect 119 2 132 0;
#X connect 119 2 162 0;
#X connect 119 2 197 0;
#X connect 119 2 295 0;
#X connect 119 2 144 0;
#X connect 120 1 387 0;
#X connect 120 2 127 0;
#X connect 120 2 158 0;
#X connect 120 2 323 0;
#X connect 120 3 121 0;
#X connect 120 3 292 0;
#X connect 120 3 237 0;
#X connect 121 0 122 0;
#X connect 122 0 123 0;
#X connect 123 0 124 0;
#X connect 125 0 129 0;
#X connect 125 0 290 0;
#X connect 125 0 457 0;
#X connect 126 0 128 0;
#X connect 127 0 138 0;
#X connect 127 1 126 0;
#X connect 127 2 129 4;
#X connect 127 2 290 1;
#X connect 127 2 145 0;
#X connect 128 0 125 1;
#X connect 129 0 647 0;
#X connect 129 0 645 0;
#X connect 129 0 136 0;
#X connect 129 1 175 0;
#X connect 130 0 131 0;
#X connect 130 0 146 0;
#X connect 130 1 146 2;
#X connect 131 0 129 3;
#X connect 132 0 137 0;
#X connect 133 0 645 0;
#X connect 134 0 133 0;
#X connect 134 0 129 1;
#X connect 134 0 128 1;
#X connect 134 0 290 2;
#X connect 135 0 129 2;
#X connect 136 0 147 0;
#X connect 136 0 332 0;
#X connect 137 0 125 0;
#X connect 138 0 137 0;
#X connect 139 0 86 0;
#X connect 140 0 10 0;
#X connect 141 0 72 1;
#X connect 142 0 62 0;
#X connect 143 0 113 0;
#X connect 144 0 104 0;
#X connect 145 0 148 0;
#X connect 146 0 135 0;
#X connect 147 0 206 0;
#X connect 147 0 205 0;
#X connect 148 0 130 0;
#X connect 148 0 134 0;
#X connect 149 0 177 0;
#X connect 149 0 186 0;
#X connect 149 0 192 0;
#X connect 150 0 153 0;
#X connect 151 0 150 0;
#X connect 152 0 153 1;
#X connect 153 0 492 0;
#X connect 154 0 176 0;
#X connect 155 0 149 0;
#X connect 156 0 160 0;
#X connect 156 0 291 0;
#X connect 156 0 363 0;
#X connect 157 0 159 0;
#X connect 158 0 169 0;
#X connect 158 1 157 0;
#X connect 158 1 174 0;
#X connect 158 2 160 4;
#X connect 158 2 291 1;
#X connect 158 2 171 0;
#X connect 159 0 156 1;
#X connect 160 0 163 0;
#X connect 160 0 646 0;
#X connect 160 0 167 0;
#X connect 161 0 172 0;
#X connect 161 1 172 2;
#X connect 162 0 168 0;
#X connect 164 0 646 0;
#X connect 165 0 164 0;
#X connect 165 0 160 1;
#X connect 165 0 159 1;
#X connect 165 0 291 2;
#X connect 165 0 174 2;
#X connect 166 0 160 2;
#X connect 167 0 355 0;
#X connect 167 0 170 0;
#X connect 168 0 156 0;
#X connect 169 0 168 0;
#X connect 170 0 229 0;
#X connect 170 0 220 0;
#X connect 170 0 225 0;
#X connect 171 0 173 0;
#X connect 172 0 166 0;
#X connect 173 0 161 0;
#X connect 173 0 165 0;
#X connect 174 0 160 3;
#X connect 174 0 385 0;
#X connect 175 0 154 0;
#X connect 175 1 182 0;
#X connect 176 0 155 0;
#X connect 177 0 178 0;
#X connect 177 1 179 0;
#X connect 178 0 239 0;
#X connect 179 0 240 0;
#X connect 180 0 181 0;
#X connect 181 0 151 0;
#X connect 182 0 183 0;
#X connect 183 0 176 1;
#X connect 184 0 186 0;
#X connect 185 0 187 1;
#X connect 185 0 195 1;
#X connect 186 0 189 0;
#X connect 187 0 184 0;
#X connect 188 0 152 0;
#X connect 189 0 188 0;
#X connect 190 0 208 0;
#X connect 190 1 209 0;
#X connect 191 0 190 1;
#X connect 192 0 194 0;
#X connect 193 0 192 0;
#X connect 194 0 191 0;
#X connect 195 0 193 0;
#X connect 196 0 486 0;
#X connect 196 0 489 0;
#X connect 197 0 196 1;
#X connect 198 0 196 1;
#X connect 200 0 201 0;
#X connect 202 0 204 0;
#X connect 203 0 202 0;
#X connect 204 0 232 0;
#X connect 205 0 203 0;
#X connect 206 0 232 0;
#X connect 211 0 204 1;
#X connect 212 0 201 0;
#X connect 214 0 215 1;
#X connect 215 0 228 0;
#X connect 216 0 217 0;
#X connect 217 0 215 0;
#X connect 218 0 219 0;
#X connect 219 0 231 0;
#X connect 220 0 218 0;
#X connect 220 1 221 0;
#X connect 220 1 227 0;
#X connect 221 0 222 0;
#X connect 222 0 219 1;
#X connect 223 0 219 2;
#X connect 224 0 217 1;
#X connect 225 0 226 0;
#X connect 226 0 230 0;
#X connect 227 0 223 0;
#X connect 228 0 231 0;
#X connect 229 0 224 0;
#X connect 230 0 214 0;
#X connect 231 0 361 0;
#X connect 231 0 362 0;
#X connect 231 0 533 0;
#X connect 232 0 210 0;
#X connect 233 0 234 0;
#X connect 233 1 236 0;
#X connect 234 0 232 1;
#X connect 235 0 211 0;
#X connect 236 0 232 1;
#X connect 237 0 241 0;
#X connect 239 0 180 0;
#X connect 240 0 180 1;
#X connect 241 0 238 0;
#X connect 242 0 478 0;
#X connect 243 0 242 0;
#X connect 244 0 250 0;
#X connect 245 0 244 2;
#X connect 245 0 265 2;
#X connect 246 0 245 0;
#X connect 248 0 249 0;
#X connect 249 0 243 0;
#X connect 250 0 248 0;
#X connect 250 1 657 0;
#X connect 250 2 254 0;
#X connect 251 0 255 0;
#X connect 252 0 251 1;
#X connect 252 0 261 1;
#X connect 253 0 251 0;
#X connect 254 0 657 1;
#X connect 255 0 279 0;
#X connect 256 0 263 0;
#X connect 257 0 256 0;
#X connect 258 0 259 0;
#X connect 259 0 257 0;
#X connect 260 0 258 0;
#X connect 260 1 656 0;
#X connect 260 2 266 0;
#X connect 261 0 264 0;
#X connect 262 0 261 0;
#X connect 263 0 262 0;
#X connect 264 0 278 0;
#X connect 265 0 260 0;
#X connect 266 0 656 1;
#X connect 268 0 269 0;
#X connect 269 0 270 0;
#X connect 269 0 273 0;
#X connect 270 0 269 1;
#X connect 271 0 268 0;
#X connect 271 1 272 0;
#X connect 271 2 277 0;
#X connect 272 0 269 1;
#X connect 273 0 274 0;
#X connect 274 0 276 0;
#X connect 274 1 275 1;
#X connect 276 0 275 0;
#X connect 278 0 304 0;
#X connect 279 0 301 0;
#X connect 283 0 285 0;
#X connect 284 0 247 0;
#X connect 284 0 244 0;
#X connect 284 0 265 0;
#X connect 284 1 482 0;
#X connect 285 0 279 1;
#X connect 285 0 278 1;
#X connect 285 0 300 0;
#X connect 286 0 284 0;
#X connect 287 0 286 1;
#X connect 287 0 303 0;
#X connect 288 0 286 1;
#X connect 288 0 302 0;
#X connect 288 0 326 0;
#X connect 288 0 327 0;
#X connect 289 0 642 0;
#X connect 289 1 98 0;
#X connect 290 0 132 0;
#X connect 291 0 162 0;
#X connect 294 0 288 0;
#X connect 294 0 480 0;
#X connect 296 0 287 0;
#X connect 297 0 286 0;
#X connect 298 0 481 0;
#X connect 299 0 252 0;
#X connect 300 0 299 0;
#X connect 301 0 282 0;
#X connect 302 0 304 0;
#X connect 302 0 301 0;
#X connect 303 0 304 0;
#X connect 303 0 301 0;
#X connect 304 0 281 0;
#X connect 305 0 307 0;
#X connect 306 0 311 0;
#X connect 306 0 406 0;
#X connect 307 0 308 0;
#X connect 308 0 309 0;
#X connect 308 0 312 0;
#X connect 309 0 308 1;
#X connect 310 0 308 1;
#X connect 311 0 305 0;
#X connect 311 1 310 0;
#X connect 311 1 316 0;
#X connect 311 1 317 0;
#X connect 311 1 318 0;
#X connect 311 1 320 0;
#X connect 312 0 315 0;
#X connect 312 1 313 0;
#X connect 313 0 314 0;
#X connect 314 0 315 1;
#X connect 315 0 322 0;
#X connect 316 0 315 5;
#X connect 317 0 315 4;
#X connect 318 0 319 0;
#X connect 319 0 315 3;
#X connect 320 0 321 0;
#X connect 321 0 315 2;
#X connect 322 0 324 0;
#X connect 322 0 398 0;
#X connect 322 1 325 0;
#X connect 322 1 399 0;
#X connect 324 0 398 0;
#X connect 324 2 398 0;
#X connect 324 3 399 0;
#X connect 325 0 399 0;
#X connect 325 2 398 0;
#X connect 325 3 399 0;
#X connect 326 0 301 3;
#X connect 327 0 304 3;
#X connect 328 0 329 0;
#X connect 329 0 344 0;
#X connect 330 0 359 0;
#X connect 331 0 354 0;
#X connect 332 0 334 0;
#X connect 332 0 331 0;
#X connect 332 0 346 0;
#X connect 333 0 330 1;
#X connect 334 0 333 0;
#X connect 335 0 336 0;
#X connect 335 1 348 0;
#X connect 336 0 340 0;
#X connect 336 0 339 1;
#X connect 337 0 328 0;
#X connect 338 0 339 0;
#X connect 338 0 343 0;
#X connect 339 0 341 0;
#X connect 340 0 337 0;
#X connect 341 0 342 0;
#X connect 342 0 340 0;
#X connect 343 0 333 0;
#X connect 344 1 330 0;
#X connect 345 0 344 1;
#X connect 346 0 345 0;
#X connect 347 0 390 0;
#X connect 348 0 349 0;
#X connect 349 0 350 0;
#X connect 349 1 350 0;
#X connect 349 2 350 0;
#X connect 349 3 351 0;
#X connect 349 4 351 0;
#X connect 349 5 352 0;
#X connect 350 0 336 1;
#X connect 351 0 336 1;
#X connect 352 0 639 0;
#X connect 353 0 336 1;
#X connect 354 0 335 0;
#X connect 355 0 357 0;
#X connect 356 0 338 0;
#X connect 357 0 356 0;
#X connect 359 0 358 0;
#X connect 363 0 375 0;
#X connect 364 0 201 0;
#X connect 365 0 201 0;
#X connect 368 0 493 0;
#X connect 369 0 493 0;
#X connect 370 0 371 0;
#X connect 370 1 372 0;
#X connect 373 0 378 0;
#X connect 374 0 373 1;
#X connect 374 0 377 0;
#X connect 375 0 373 0;
#X connect 376 0 374 0;
#X connect 378 0 379 0;
#X connect 379 0 380 0;
#X connect 380 0 384 0;
#X connect 381 0 383 0;
#X connect 383 0 380 1;
#X connect 383 0 382 0;
#X connect 384 0 368 0;
#X connect 384 1 369 0;
#X connect 388 0 389 0;
#X connect 389 0 394 0;
#X connect 390 0 333 0;
#X connect 391 0 396 0;
#X connect 391 0 430 1;
#X connect 392 0 391 1;
#X connect 392 0 655 0;
#X connect 393 0 392 0;
#X connect 394 0 391 0;
#X connect 398 0 395 0;
#X connect 398 0 401 0;
#X connect 399 0 400 0;
#X connect 399 0 402 0;
#X connect 403 0 548 2;
#X connect 404 0 588 0;
#X connect 405 0 589 0;
#X connect 406 0 395 0;
#X connect 406 0 400 0;
#X connect 408 0 413 0;
#X connect 409 0 395 0;
#X connect 409 0 400 0;
#X connect 411 0 390 0;
#X connect 412 0 409 0;
#X connect 412 0 416 0;
#X connect 413 0 415 0;
#X connect 413 1 409 0;
#X connect 413 1 424 0;
#X connect 413 1 428 0;
#X connect 414 0 418 0;
#X connect 415 0 414 0;
#X connect 416 0 414 0;
#X connect 417 0 416 0;
#X connect 418 0 425 0;
#X connect 419 0 423 1;
#X connect 420 0 418 1;
#X connect 421 0 420 1;
#X connect 422 0 421 0;
#X connect 423 0 420 0;
#X connect 424 0 423 0;
#X connect 424 1 422 0;
#X connect 425 0 426 0;
#X connect 425 0 430 0;
#X connect 425 0 431 0;
#X connect 426 0 427 0;
#X connect 427 0 425 1;
#X connect 428 0 425 1;
#X connect 429 0 435 0;
#X connect 429 1 436 0;
#X connect 430 0 429 0;
#X connect 432 0 401 0;
#X connect 432 1 402 0;
#X connect 433 0 434 0;
#X connect 434 0 432 2;
#X connect 435 0 401 0;
#X connect 435 0 432 0;
#X connect 436 0 402 0;
#X connect 436 0 432 1;
#X connect 437 0 438 0;
#X connect 438 0 439 0;
#X connect 439 0 440 0;
#X connect 439 0 441 0;
#X connect 440 0 439 1;
#X connect 441 0 446 0;
#X connect 441 1 442 0;
#X connect 442 0 445 0;
#X connect 443 0 439 1;
#X connect 445 0 448 0;
#X connect 446 0 456 0;
#X connect 447 0 571 0;
#X connect 448 0 450 0;
#X connect 448 1 449 0;
#X connect 449 0 450 1;
#X connect 450 0 446 1;
#X connect 452 0 453 0;
#X connect 453 0 473 0;
#X connect 453 0 474 0;
#X connect 454 0 463 0;
#X connect 455 0 472 0;
#X connect 455 0 473 0;
#X connect 456 0 475 0;
#X connect 456 0 483 0;
#X connect 456 1 476 0;
#X connect 456 1 483 1;
#X connect 457 0 458 0;
#X connect 458 0 460 0;
#X connect 459 0 462 0;
#X connect 460 0 454 0;
#X connect 462 0 458 1;
#X connect 462 0 461 0;
#X connect 463 0 455 0;
#X connect 463 1 437 0;
#X connect 463 2 443 0;
#X connect 463 2 469 0;
#X connect 464 0 465 2;
#X connect 465 0 534 0;
#X connect 466 0 467 0;
#X connect 466 1 465 1;
#X connect 466 2 464 0;
#X connect 467 0 468 0;
#X connect 468 0 465 0;
#X connect 469 0 466 0;
#X connect 472 0 474 0;
#X connect 478 0 253 0;
#X connect 479 0 478 1;
#X connect 480 0 479 0;
#X connect 481 0 271 0;
#X connect 482 0 283 0;
#X connect 483 0 475 0;
#X connect 483 1 476 0;
#X connect 483 2 475 0;
#X connect 483 3 476 0;
#X connect 484 0 486 1;
#X connect 484 0 489 1;
#X connect 485 0 484 0;
#X connect 486 0 607 0;
#X connect 488 0 487 0;
#X connect 488 1 485 0;
#X connect 489 0 608 0;
#X connect 492 0 190 0;
#X connect 493 0 370 0;
#X connect 494 0 495 0;
#X connect 495 0 496 0;
#X connect 495 0 499 0;
#X connect 496 0 495 1;
#X connect 497 0 494 0;
#X connect 497 1 498 0;
#X connect 497 2 535 0;
#X connect 498 0 495 1;
#X connect 499 0 500 0;
#X connect 500 0 503 0;
#X connect 500 0 505 0;
#X connect 500 0 537 0;
#X connect 500 1 501 1;
#X connect 500 1 506 1;
#X connect 500 1 536 1;
#X connect 502 0 497 0;
#X connect 503 0 501 0;
#X connect 504 0 106 0;
#X connect 504 1 107 0;
#X connect 504 2 103 0;
#X connect 504 3 597 0;
#X connect 505 0 506 0;
#X connect 507 0 508 0;
#X connect 507 0 511 0;
#X connect 507 0 515 0;
#X connect 507 0 528 0;
#X connect 507 0 540 0;
#X connect 508 0 516 1;
#X connect 509 0 510 0;
#X connect 510 0 514 0;
#X connect 510 0 567 0;
#X connect 511 0 510 1;
#X connect 512 0 510 1;
#X connect 513 0 512 0;
#X connect 514 0 516 0;
#X connect 514 0 518 0;
#X connect 514 0 538 0;
#X connect 515 0 529 0;
#X connect 516 0 517 0;
#X connect 517 0 581 0;
#X connect 518 0 519 0;
#X connect 519 0 580 0;
#X connect 520 0 521 0;
#X connect 520 1 575 0;
#X connect 521 0 522 0;
#X connect 522 0 530 0;
#X connect 523 0 525 0;
#X connect 524 0 523 1;
#X connect 525 0 531 0;
#X connect 526 0 544 0;
#X connect 527 0 526 1;
#X connect 528 0 518 1;
#X connect 529 0 514 1;
#X connect 530 0 523 0;
#X connect 531 0 532 0;
#X connect 532 0 526 0;
#X connect 533 0 361 0;
#X connect 533 1 362 0;
#X connect 533 2 361 0;
#X connect 533 3 362 0;
#X connect 534 0 447 0;
#X connect 537 0 536 0;
#X connect 538 0 539 0;
#X connect 539 0 582 0;
#X connect 540 0 538 1;
#X connect 541 0 544 1;
#X connect 544 0 546 0;
#X connect 544 1 545 0;
#X connect 545 0 543 0;
#X connect 546 0 542 0;
#X connect 550 0 551 0;
#X connect 550 0 552 0;
#X connect 550 0 553 0;
#X connect 550 0 554 0;
#X connect 550 0 555 0;
#X connect 550 0 556 0;
#X connect 550 0 565 0;
#X connect 551 0 207 0;
#X connect 552 0 280 0;
#X connect 553 0 403 0;
#X connect 554 0 360 0;
#X connect 555 0 477 0;
#X connect 556 0 547 0;
#X connect 559 0 548 3;
#X connect 563 0 564 1;
#X connect 564 0 566 0;
#X connect 564 0 611 0;
#X connect 564 1 566 1;
#X connect 564 1 611 0;
#X connect 565 0 609 0;
#X connect 570 0 573 0;
#X connect 571 0 444 0;
#X connect 572 0 596 0;
#X connect 573 0 572 0;
#X connect 573 0 574 0;
#X connect 574 0 594 0;
#X connect 575 0 524 0;
#X connect 576 0 583 0;
#X connect 577 0 527 0;
#X connect 578 0 577 0;
#X connect 580 0 578 0;
#X connect 581 0 520 0;
#X connect 582 0 541 0;
#X connect 583 0 578 1;
#X connect 583 0 579 0;
#X connect 584 0 590 0;
#X connect 585 0 586 0;
#X connect 586 0 587 0;
#X connect 586 0 588 1;
#X connect 586 0 589 1;
#X connect 588 0 548 0;
#X connect 589 0 548 1;
#X connect 590 0 585 0;
#X connect 591 0 592 0;
#X connect 592 0 595 0;
#X connect 593 0 591 0;
#X connect 596 0 571 1;
#X connect 597 0 598 0;
#X connect 599 0 602 0;
#X connect 600 0 601 0;
#X connect 601 0 599 0;
#X connect 602 0 546 1;
#X connect 602 0 545 1;
#X connect 603 0 604 0;
#X connect 604 0 605 0;
#X connect 604 0 606 0;
#X connect 607 0 490 0;
#X connect 608 0 491 0;
#X connect 609 0 564 0;
#X connect 611 0 612 0;
#X connect 612 0 610 0;
#X connect 614 0 616 0;
#X connect 615 0 4 0;
#X connect 615 0 651 0;
#X connect 615 1 641 0;
#X connect 615 1 649 0;
#X connect 615 1 661 1;
#X connect 616 0 96 0;
#X connect 616 1 615 0;
#X connect 623 0 14 2;
#X connect 624 0 14 0;
#X connect 625 0 627 0;
#X connect 626 0 627 0;
#X connect 627 0 14 1;
#X connect 629 0 631 0;
#X connect 631 0 632 0;
#X connect 632 0 630 0;
#X connect 636 0 637 0;
#X connect 638 0 628 0;
#X connect 638 0 636 0;
#X connect 639 0 353 0;
#X connect 641 0 636 0;
#X connect 642 0 97 0;
#X connect 647 0 233 0;
#X connect 648 0 640 0;
#X connect 649 0 648 0;
#X connect 650 0 640 0;
#X connect 651 0 650 0;
#X connect 656 0 258 1;
#X connect 657 0 248 1;
