#N canvas 22 0 3440 1357 12;
#X obj 450 34 loadbang;
#X obj 29 24 bng 19 250 50 0 empty bar0 生成断言 25 10 0 12 #c6feff #000000 #000000;
#X obj 450 67 bng 19 250 50 0 empty empty 初始化 25 10 0 12 #ffc7c6 #000000 #000000;
#X obj 29 365 list split;
#X obj 62 394 list split 1;
#X listbox 62 418 6 0 0 0 - - - 0;
#X obj 235 365 list split;
#X obj 268 395 list split 1;
#X listbox 268 419 15 0 0 0 - - - 0;
#X obj 29 52 t b b b;
#X floatatom 27 478 5 0 0 0 - - - 0;
#X obj 27 501 moses 7;
#X obj 27 526 bng 19 250 50 0 empty empty empty 0 -10 0 12 #fcfcfc #000000 #000000;
#X obj 73 526 bng 19 250 50 0 empty empty empty 0 -10 0 12 #fcfcfc #000000 #000000;
#X listbox 27 604 11 0 0 0 - - - 0;
#X obj 179 534 pack s s s;
#X obj 261 584 cnfix;
#X obj 179 582 list;
#X obj 261 608 print lyric;
#X listbox 2537 169 19 0 0 0 - lyric - 36;
#X obj 179 607 s lyric;
#X msg 179 558 \$1\$2\$3;
#N canvas 78 78 450 250 (subpatch) 0;
#X array sub-prob 107 float 2;
#X coords 0 1 107 0 80 30 1 0 0;
#X restore 87 143 graph;
#X msg 557 87 0 -1;
#X obj 557 135 list length;
#X floatatom 557 159 5 0 0 0 - - - 0;
#X obj 29 134 t l b;
#X msg 711 87 0 -1;
#X obj 711 135 list length;
#X floatatom 711 159 5 0 0 0 - - - 0;
#N canvas 78 78 450 250 (subpatch) 0;
#X array pred-prob 263 float 2;
#X coords 0 1 263 0 80 30 1 0 0;
#X restore 298 142 graph;
#X obj 235 130 t l b;
#X obj 450 95 t b b b b b b;
#X obj 56 209 array random sub-prob;
#X obj 267 209 array random pred-prob;
#X obj 53 285 array get sub-prob;
#X obj 98 238 t f f;
#X obj 98 338 array set sub-prob;
#X floatatom 53 309 5 0 0 0 - - - 0;
#X msg 56 182 0 -1;
#X msg 267 182 0 -1;
#X msg 53 262 \$1 1;
#X msg 29 76 0 -1;
#X msg 235 72 0 -1;
#X obj 98 309 / 4;
#X obj 304 236 t f f;
#X floatatom 259 307 5 0 0 0 - - - 0;
#X msg 259 260 \$1 1;
#X obj 304 307 / 4;
#X obj 304 336 array set pred-prob;
#X obj 259 283 array get pred-prob;
#X msg 557 183 \; sub-prob resize \$1 \; sub-prob const 1;
#X msg 711 183 \; pred-prob resize \$1 \; pred-prob const 1;
#X floatatom 2520 111 7 0 0 0 - - rnd-seed 36;
#X obj 98 182 r rnd-seed;
#X msg 177 182 seed \$1;
#X obj 310 182 r rnd-seed;
#X obj 389 182 + 1;
#X msg 419 182 seed \$1;
#X floatatom 879 137 5 0 0 0 - - - 0;
#N canvas 0 50 450 250 (subpatch) 0;
#X array chord-prob 24 float 2;
#X coords 0 4 24 0 80 30 1 0 0;
#X restore 557 375 graph;
#X msg 937 133 \; chord-prob resize \$1 \; chord-prob const 4;
#X obj 879 185 until;
#X obj 879 87 bng 19 250 50 0 empty empty empty 0 -10 0 12 #fcfcfc #000000 #000000;
#X obj 879 211 f;
#X obj 910 211 + 1;
#X obj 879 160 t f b f;
#X msg 924 185 0;
#X floatatom 879 235 5 0 0 0 - - - 0;
#X obj 879 258 t b f;
#X obj 878 283 array set chord-prob;
#X obj 463 333 bng 19 250 50 0 empty bar0 生成和弦 25 10 0 12 #c6feff #000000 #000000;
#X obj 481 460 array random chord-prob;
#X obj 527 427 r rnd-seed;
#X msg 636 427 seed \$1;
#X obj 606 427 + 4;
#X msg 481 428 0 -1;
#X listbox 481 537 20 0 0 0 - - - 0;
#X msg 481 487 \$1 -1;
#X obj 756 285 value key;
#X msg 668 343 0 2 4 5 7 9 11;
#X obj 668 368 list split;
#X obj 463 398 t b b b b;
#X obj 701 394 list split 1;
#X obj 701 418 expr $f1+key;
#X floatatom 701 443 5 0 0 1 根音 - - 0;
#X floatatom 711 286 5 0 0 0 - - - 0;
#X obj 794 443 value root;
#N canvas 0 50 450 250 (subpatch) 0;
#X array chord 4 float 2;
#X coords 0 14 4 -4 50 50 1 0 0;
#X restore 558 308 graph;
#X obj 600 560 list length;
#X msg 600 584 \; chord resize \$1;
#X obj 481 560 t l l;
#X obj 481 584 array set chord;
#X obj 880 62 text define chords;
#X obj 879 111 text size chords;
#X obj 481 512 text get chords;
#X obj 711 261 + 55;
#X msg 711 35 read predicates.txt;
#X msg 880 36 read chords.txt;
#X msg 557 35 read subjects.txt;
#X obj 557 61 text define subjects;
#X obj 711 61 text define predicates;
#X obj 711 111 text get predicates;
#X obj 557 111 text get subjects;
#X obj 29 105 text get subjects;
#X obj 235 101 text get predicates;
#X msg 27 550 list 是, f 7;
#X msg 46 576 list 不是, f 9;
#X obj 37 651 tgl 24 0 empty empty 时钟 28 12 0 16 #feffc6 #000000 #000000 0 1;
#X floatatom 161 717 5 0 0 0 - - - 0;
#X obj 37 841 sel 0;
#X obj 37 868 f;
#X obj 69 858 + 1;
#X obj 123 836 mod 3;
#X floatatom 37 892 5 0 0 0 - - - 0;
#X msg 115 691 0;
#X obj 37 1000 + 80;
#X obj 37 1025 t f f b;
#X obj 37 792 counter;
#X obj 122 781 sel 0 1;
#X msg 122 811 0;
#X msg 37 1113 \$1 \$2;
#X obj 37 1087 pack;
#X obj 37 1138 line;
#X obj 60 750 bpm 0.25;
#X obj 145 915 + 80;
#X obj 122 1026 value tempo;
#X floatatom 139 652 5 0 0 1 实时速度（BPM） rt-tempo - 16;
#X obj 60 1059 expr 480000/($f1+$f2);
#X obj 37 1163 s rt-tempo;
#X obj 60 726 r rt-tempo;
#X obj 161 690 hradio 19 1 0 16 empty empty empty 0 -10 0 12 #fcfcfc #000000 #000000 0;
#X obj 37 915 sel 0 1 2;
#X obj 255 733 t b b b b;
#X obj 331 733 value tempo;
#X obj 331 757 bpm 4;
#X floatatom 331 781 8 0 0 0 - - - 0;
#X obj 331 804 value bar-dur;
#X obj 349 996 metro;
#X obj 372 941 value bar-dur;
#X obj 349 860 t b b b;
#X obj 372 965 /;
#X obj 349 1029 euclid, f 11;
#X obj 441 890 t b f;
#X msg 404 996 0;
#X msg 319 888 0, f 2;
#X floatatom 349 1056 5 0 0 0 - - - 0;
#X obj 416 1055 hradio 19 1 0 3 empty empty empty 0 -10 0 12 #fcfcfc #000000 #000000 0;
#X msg 458 999 number \$1;
#X floatatom 494 932 5 0 0 1 Steps - - 0;
#X floatatom 494 959 5 0 0 1 Pulses - - 0;
#X obj 391 1055 bng 19 250 50 0 empty empty empty 0 -10 0 12 #fcfcfc #000000 #000000;
#X obj 349 964 tgl 19 0 empty empty empty 0 -10 0 12 #dfdfdf #000000 #000000 0 1;
#X msg 349 888 1, f 2;
#X obj 711 236 srand 5 16;
#X obj 27 454 srand 2 10;
#X obj 795 418 srand 6 7;
#X obj 928 257 srand 3 5;
#X obj 145 890 srand 7 40;
#X obj 37 976 srand 8 40;
#X obj 409 860 srand 9 7;
#X obj 488 890 srand 10;
#X obj 496 675 bng 19 250 50 0 empty empty Kick 25 10 0 12 #c7c6ff #000000 #000000;
#X obj 409 890 + 2;
#X obj 840 632 bng 19 250 50 0 empty empty Knob 25 10 0 12 #c7c6ff #000000 #000000;
#X obj 840 811 osc~;
#X obj 840 787 vline~;
#X obj 895 812 vline~;
#X obj 840 838 *~;
#X obj 840 557 srand 11 100;
#X obj 840 605 sel 1;
#X obj 296 1231 metro;
#X obj 319 1152 value bar-dur;
#X obj 296 1095 t b b b;
#X obj 319 1176 /;
#X obj 296 1264 euclid, f 11;
#X obj 465 1123 t b f;
#X msg 266 1123 0, f 2;
#X floatatom 296 1291 5 0 0 0 - - - 0;
#X obj 363 1290 hradio 19 1 0 14 empty empty empty 0 -10 0 12 #fcfcfc #000000 #000000 0;
#X msg 407 1255 number \$1;
#X floatatom 458 1160 5 0 0 1 Steps - - 0;
#X floatatom 458 1187 5 0 0 1 Pulses - - 0;
#X obj 338 1290 bng 19 250 50 0 empty empty empty 0 -10 0 12 #fcfcfc #000000 #000000;
#X obj 296 1199 tgl 19 0 empty empty empty 0 -10 0 12 #dfdfdf #000000 #000000 0 1;
#X msg 296 1123 1, f 2;
#X obj 651 1057 bng 19 250 50 0 empty empty Snare 25 10 0 12 #c7c6ff #000000 #000000;
#X obj 356 1095 srand 12 7;
#X obj 512 1123 srand 13;
#X obj 356 1123 expr ($f1+2)*2;
#X obj 351 1200 srand 14;
#X obj 840 530 t b b;
#X obj 840 581 <;
#X obj 840 656 t b b;
#X obj 840 680 srand 16 1000;
#X obj 914 622 srand 17 1000;
#X obj 840 733 pack;
#X msg 840 761 \$1 \, \$2 10 \, 80 40 10;
#X obj 941 557 srand 15 50;
#X obj 941 581 + 50;
#X obj 1039 701 expr~ ($v1/2)+1;
#X msg 1092 650 0;
#X obj 1040 728 snapshot~;
#X obj 1039 677 osc~ 0.7;
#X msg 895 787 \$1 2 \, 0.5 8 2 \, 0 120 10;
#X obj 1040 752 pow 2;
#X obj 841 893 panner~;
#X obj 909 893 line;
#X obj 1019 890 snapshot~;
#X obj 1018 863 expr~ ($v1/2)+0.5;
#X msg 1019 914 \$1 130;
#X obj 1018 839 osc~ 2;
#X obj 1171 860 spigot;
#X msg 1176 831 1;
#X msg 1203 814 0;
#N canvas 0 50 450 250 (subpatch) 0;
#X array kick1 22978 float 0;
#X coords 0 1 22977 -1 80 50 1 0 0;
#X restore 559 676 graph;
#X msg 1102 42 read -resize samples/kick1.wav kick1;
#X obj 1160 95 soundfiler;
#X obj 604 798 osc~;
#X obj 604 774 vline~;
#X obj 604 825 *~;
#X msg 604 747 600 \, 200 10 \, 80 40 10;
#X obj 496 747 tabplay~ kick1;
#X obj 2740 598 catch~ drums;
#X obj 2828 690 hsl 120 19 0 1 0 0 empty empty empty -2 -10 0 12 #fcfcfc #000000 #000000 0 1;
#X obj 2834 598 catch~ drums-l;
#X obj 2835 626 catch~ drums-r;
#X obj 841 926 throw~ drums-l;
#X obj 886 951 throw~ drums-r;
#X obj 604 873 throw~ drums;
#X obj 658 825 vline~;
#X msg 1102 68 read -resize samples/snare1.wav snare1;
#N canvas 0 50 450 250 (subpatch) 0;
#X array snare1 12230 float 0;
#X coords 0 1 12229 -1 80 50 1 0 0;
#X restore 724 1057 graph;
#X obj 932 1177 vline~;
#X obj 877 1203 *~;
#X obj 875 1028 noise~;
#X obj 876 1177 vcf~ 2;
#X obj 651 1134 tabplay~ snare1;
#X obj 651 1162 bob~;
#X obj 651 1108 t b b;
#X obj 692 1162 srand 18 4500;
#X obj 795 1162 + 500;
#X obj 796 1187 / 10;
#X obj 896 1075 vline~;
#X obj 932 1102 srand 20 90;
#X obj 932 1127 expr pow(($f1/100)+0.1 \, 2);
#X obj 708 1187 srand 19 30;
#X obj 877 1227 *~ 0.5;
#X msg 896 1050 3000 \, 500 100;
#X msg 932 1151 \$1 2 \, 0.8 8 2 \, 0 120 10;
#X obj 652 1213 *~ 1;
#X obj 604 849 *~ 1;
#X obj 496 718 sel 0;
#X msg 657 708 1;
#X msg 658 800 1 2 \, 0.5 8 2 \, 0 120 10;
#X msg 693 709 0.7;
#X obj 1030 557 srand 21 600;
#X obj 1030 605 value knobtone;
#X obj 840 703 expr $f1+knobtone;
#X obj 914 646 expr $f1+knobtone+500;
#X floatatom 1030 581 5 0 0 0 - - - 0;
#X obj 1222 565 tabread4~ twisted;
#X obj 1256 530 vline~;
#X obj 1256 367 srand 22;
#X obj 1108 170 soundfiler;
#X msg 1108 142 read -resize samples/twisted.wav twisted;
#X obj 1308 341 bng 19 250 50 0 empty empty Twisted\ Drum 25 10 0 12 #c7c6ff #000000 #000000;
#X obj 1256 478 pack;
#X msg 1256 504 \$1 \, \$2 150;
#X obj 1256 393 t f f b;
#X obj 1222 640 *~;
#X obj 1342 514 vline~;
#X obj 1222 615 osc~;
#X obj 1302 416 srand 23 200;
#X obj 1222 664 expr~ round($v1*8)/8;
#X obj 1526 536 tabread4~ twisted;
#X obj 1526 510 vline~;
#X obj 1526 458 pack;
#X msg 1526 484 \$1 \, \$2 150;
#X obj 1526 382 t f f b;
#X obj 1526 611 *~;
#X obj 1526 586 osc~;
#X obj 1526 560 expr~ $v1*50+80;
#X obj 1526 635 expr~ round($v1*8)/8;
#X obj 1526 356 srand 24;
#X obj 1572 405 srand 25 200;
#N canvas 0 50 450 250 (subpatch) 0;
#X array twisted-dyn 6 float 0;
#X coords 0 9 5 0 120 50 1 0 0;
#X restore 1256 274 graph;
#X obj 909 408 until;
#X obj 909 434 f;
#X obj 940 434 + 1;
#X obj 909 383 t f b f;
#X msg 954 408 0;
#X floatatom 909 458 5 0 0 0 - - - 0;
#X obj 909 481 t b f;
#X obj 908 506 array set twisted-dyn;
#X obj 958 480 srand 26 10;
#X msg 989 418 \; twisted-dyn resize \$1 \; twisted-dyn const 9;
#X obj 1526 658 *~;
#X obj 1223 687 *~;
#X obj 2827 783 hsl 120 19 0 1 0 0 empty empty empty -2 -10 0 12 #fcfcfc #000000 #000000 0 1;
#X obj 2741 730 catch~ twisted-l;
#X obj 2770 755 catch~ twisted-r;
#X obj 1526 724 throw~ twisted-r;
#X obj 1222 743 throw~ twisted-l;
#X obj 1364 604 tabread4 twisted-dyn;
#X obj 1256 341 t b f;
#X obj 1364 628 / 9;
#X obj 1181 370 spigot;
#X msg 1166 310 0;
#X msg 1202 310 1;
#X obj 37 816 t f f;
#N canvas 789 569 450 300 stopper 0;
#X obj 51 128 f;
#X obj 83 128 + 1;
#X obj 51 152 >=;
#X obj 83 152 * 2;
#X msg 69 80 0;
#X obj 51 176 sel 1;
#X obj 40 30 inlet;
#X obj 87 29 inlet;
#X obj 135 27 inlet;
#X obj 43 206 outlet;
#X connect 0 0 1 0;
#X connect 1 0 0 1;
#X connect 1 0 2 0;
#X connect 2 0 5 0;
#X connect 3 0 2 1;
#X connect 4 0 0 1;
#X connect 5 0 9 0;
#X connect 6 0 0 0;
#X connect 7 0 4 0;
#X connect 8 0 3 0;
#X restore 243 983 pd stopper;
#N canvas 789 569 450 300 stopper 0;
#X obj 51 128 f;
#X obj 83 128 + 1;
#X obj 51 152 >=;
#X obj 83 152 * 2;
#X msg 69 80 0;
#X obj 51 176 sel 1;
#X obj 40 30 inlet;
#X obj 87 29 inlet;
#X obj 135 27 inlet;
#X obj 43 206 outlet;
#X connect 0 0 1 0;
#X connect 1 0 0 1;
#X connect 1 0 2 0;
#X connect 2 0 5 0;
#X connect 3 0 2 1;
#X connect 4 0 0 1;
#X connect 5 0 9 0;
#X connect 6 0 0 0;
#X connect 7 0 4 0;
#X connect 8 0 3 0;
#X restore 199 1198 pd stopper;
#X obj 276 763 s bar0;
#X obj 161 740 s clock;
#X obj 1185 281 r bar0;
#X obj 75 950 s bar2;
#X obj 1132 281 r bar2;
#X obj 1121 370 r clock;
#X obj 909 331 r bar0;
#X msg 1342 490 1 2 \, 0.5 18 2 \, 0 \$1 20;
#X obj 1401 627 expr (1-$f1)*100+100, f 16;
#X obj 1223 715 flanger~ 3 0.8;
#X msg 1196 402 start;
#X msg 1196 428 stop;
#X obj 1527 690 flanger~ 3 0.8;
#X obj 1746 393 array size chord;
#X obj 1746 340 bng 19 250 50 0 empty bar0-2 Karplus-Strong\ Chord 25 10 0 12 #c6ffc7 #000000 #000000;
#X obj 1746 420 until;
#X obj 1746 444 f;
#X obj 1778 444 + 1;
#X msg 1798 418 0;
#X obj 1746 365 t b b;
#X obj 1746 468 t f f;
#X obj 1778 495 array get chord;
#X obj 1778 519 expr $f1+root;
#X obj 1750 552 pack f f f f f f;
#X obj 1901 375 srand 27 100;
#X obj 1901 403 srand 28 100;
#X obj 1901 434 srand 29 3000;
#X obj 1901 458 + 2000;
#X obj 1903 488 srand 30 16;
#X obj 1903 512 expr pow($f1 \, 2)+2;
#X obj 1750 586 clone karp~ 4;
#X obj 262 788 s bar0-1;
#X obj 1725 660 rev2~ 80 90 4000 20;
#X obj 1880 658 rev2~ 80 90 4000 20;
#X msg 1397 705 0;
#X msg 1434 705 0.5;
#X obj 1467 1141 phasor~;
#X obj 1467 1165 expr~ ($v1*2)-1;
#X obj 1467 1240 *~;
#X obj 1467 870 value root;
#X obj 1467 828 bng 19 250 50 0 empty empty Bass 25 10 0 12 #c6ffc7 #000000 #000000;
#X obj 1544 1219 vline~;
#X msg 1544 1195 1 5 \, 0.7 200 5;
#X obj 1467 919 t f b;
#X obj 1467 1052 +;
#X obj 1467 1106 mtof;
#X obj 1707 1080 bng 19 250 50 0 empty empty empty 0 -10 0 12 #fcfcfc #000000 #000000;
#X obj 1705 1159 f;
#X obj 1467 1080 line;
#X obj 1705 1183 - 12;
#X msg 1704 1207 \$1 100;
#X msg 1731 1118 0.9 10 \, 0 90 10;
#X obj 1467 1196 vcf~ 1;
#X obj 1543 1113 vline~;
#X msg 1543 1089 5000 10 \, 300 300 10;
#X obj 1625 1243 r bar2;
#X obj 1499 943 srand 31 6;
#X obj 1499 967 sel 0 1 2 3 4 5;
#X msg 1487 1022 0;
#X msg 1526 1021 12;
#X obj 1564 1021 array get chord;
#X msg 1564 995 2;
#X floatatom 1564 1045 5 0 0 0 - - - 0;
#X obj 1467 895 - 36;
#X obj 1707 1005 srand 32 10;
#X obj 1707 1053 sel 1;
#X obj 1707 1029 < 8;
#X obj 1466 1292 throw~ bass;
#X obj 1466 1268 *~ 1;
#X obj 2827 851 hsl 120 19 0.01 1 1 0 empty empty empty -2 -10 0 12 #fcfcfc #000000 #000000 0 1;
#X obj 2741 818 catch~ bass;
#X obj 2742 501 catch~ snare-l;
#X obj 2851 500 catch~ snare-r;
#X obj 652 1273 throw~ snare-l;
#X obj 764 1273 throw~ snare-r;
#X obj 2740 555 throw~ drums-l;
#X obj 2850 555 throw~ drums-r;
#X obj 2743 528 panner2~ 0.65;
#X obj 1149 1003 bng 19 250 50 0 empty empty Hi-hat 25 10 0 12 #c7c6ff #000000 #000000;
#X msg 1388 42 read -resize samples/o-hat1.wav o-hat1;
#X msg 1388 68 read -resize samples/c-hat1.wav c-hat1;
#N canvas 0 50 450 250 (subpatch) 0;
#X array o-hat1 9680 float 0;
#X coords 0 1 9679 -1 80 50 1 0 0;
#X restore 1311 1056 graph;
#N canvas 0 50 450 250 (subpatch) 0;
#X array c-hat1 6168 float 0;
#X coords 0 1 6167 -1 80 50 1 0 0;
#X restore 1311 1127 graph;
#X obj 1149 1205 tabplay~ o-hat1;
#X obj 1266 1205 tabplay~ c-hat1;
#X obj 1149 1269 panner~ 0.1;
#X obj 1149 1295 throw~ drums-l;
#X obj 1258 1295 throw~ drums-r;
#X obj 1149 1081 <;
#X obj 1204 1060 srand 34 100;
#X obj 1149 1032 srand 33 100;
#X obj 1251 1032 r bar0;
#X floatatom 1204 1084 5 0 0 0 - - - 0;
#X obj 1149 1106 sel 1;
#X obj 1149 1130 srand 35 100;
#X obj 1149 1156 <;
#X obj 1081 1212 r bar0;
#X floatatom 1034 1264 5 0 0 0 - - - 0;
#X obj 1034 1240 srand 36 100;
#X obj 1149 1180 sel 0 1;
#X floatatom 458 1214 5 0 0 1 Rotation - - 0;
#N canvas 0 50 450 250 (subpatch) 0;
#X array karp-samp-l 116363 float 0;
#X coords 0 4 116362 -4 160 80 1 0 0;
#X restore 1832 235 graph;
#X obj 262 816 s bar0-2;
#X obj 2040 344 r bar0-1;
#X obj 2040 368 value bar-dur;
#X msg 1625 1271 0 5;
#X obj 2040 416 * 44100;
#X obj 2141 416 samplerate~;
#X obj 2141 390 r pd-dsp-started;
#X obj 2040 392 / 1000;
#X obj 1683 740 tabwrite~ karp-samp-l;
#X msg 2268 420 \; karp-samp-l resize \$1 \; karp-samp-r resize \$1;
#N canvas 312 312 450 250 (subpatch) 0;
#X array karp-samp-r 116363 float 0;
#X coords 0 4 116362 -4 160 80 1 0 0;
#X restore 2006 235 graph;
#X obj 1772 709 *~ 1;
#X obj 1895 706 *~ 1;
#X obj 1861 741 tabwrite~ karp-samp-r;
#X obj 1731 783 throw~ karp-l;
#X obj 1868 808 throw~ karp-r;
#X obj 2826 470 hsl 120 19 0.01 1 1 0 empty empty empty -2 -10 0 12 #fcfcfc #000000 #000000 0 1;
#X obj 2739 378 catch~ karp-l;
#X obj 2770 402 catch~ karp-r;
#X msg 1883 571 start;
#X obj 19 948 s bar1;
#X obj 2029 537 r bar1;
#X msg 1972 598 stop;
#X obj 150 973 s clock-off;
#X obj 1681 1241 r clock-off;
#X obj 1935 554 r clock-off;
#X obj 2029 561 t b b;
#X obj 2106 507 tgl 19 0 empty empty empty 0 -10 0 12 #fcfcfc #000000 #000000 0 1;
#X msg 2106 475 1;
#X msg 2144 475 0;
#X obj 2028 472 r bar2;
#X obj 2093 618 metro;
#X obj 2174 503 r rt-tempo;
#X obj 2174 553 bpm;
#X obj 2254 530 expr 1/pow(2 \, $f1);
#X obj 2254 503 srand 37 4;
#X obj 2174 528 f;
#X obj 2195 472 t b b;
#X obj 2093 642 f;
#X obj 2126 642 + 1;
#X obj 2158 642 mod 8;
#X msg 2143 617 0;
#X obj 2094 715 clone karpclip~ 8;
#X obj 2095 684 pack;
#X floatatom 2167 672 5 0 0 0 - - - 0;
#X obj 2090 786 echo~ 500 0.6 0.5;
#X obj 2239 714 r rt-tempo;
#X obj 2239 738 bpm 1;
#X obj 2094 752 *~ 0.5;
#X obj 2150 749 *~ 0.5;
#X obj 1873 985 array size chord;
#X obj 1873 1012 until;
#X obj 1873 1036 f;
#X obj 1905 1036 + 1;
#X obj 1873 1060 t f f;
#X obj 1905 1084 array get chord;
#X msg 1919 1009 0;
#X obj 2067 1288 s~ fs-vol;
#X obj 1905 1108 expr $f1+root-12;
#X obj 1873 1192 pack f f;
#X obj 2066 1213 vline~;
#X obj 1905 1132 t f b;
#X obj 1955 1133 srand 39 3;
#X obj 1905 1159 expr $f1+($f2-1)*12;
#N canvas 0 50 450 250 (subpatch) 0;
#X array noise1-l 259 float 0;
#X coords 0 1 258 -1 100 50 1 0 0;
#X restore 1950 880 graph;
#X obj 2053 948 noise~;
#X obj 2053 972 lop~ 1000;
#X obj 1870 892 bng 19 250 50 0 empty empty Synth 25 10 0 12 #c6ffc7 #000000 #000000;
#X obj 1882 926 t b b;
#X obj 1873 1219 clone noisesynth~ 4;
#X obj 1673 881 srand 40 100;
#X obj 1673 905 <;
#X obj 1712 847 r bar0;
#X obj 1673 929 sel 1;
#X floatatom 1719 929 5 0 0 0 - - - 0;
#X obj 1706 905 srand 41 60;
#X obj 1873 957 t b b b;
#X obj 2168 1072 + 90;
#X obj 2066 1160 pack f f f;
#X obj 2064 1068 t b f f;
#X obj 2064 1092 srand 43 100;
#X obj 2064 1116 / 100;
#X obj 2064 1044 srand 42 30;
#N canvas 0 50 450 250 (subpatch) 0;
#X array noise1-r 259 float 0;
#X coords 0 1 258 -1 100 50 1 0 0;
#X restore 2062 880 graph;
#X msg 1410 120 \; noise1-l resize 259 \; noise1-r resize 259;
#X obj 2173 952 del 10 1 msec;
#X obj 2053 1001 tabwrite~ noise1-l;
#X obj 2173 980 tabwrite~ noise1-r;
#X obj 1825 1289 throw~ synth-l;
#X obj 1954 1291 throw~ synth-r;
#X obj 2826 936 hsl 120 19 0.01 1 1 0 empty empty empty -2 -10 0 12 #fcfcfc #000000 #000000 0 1;
#X obj 2740 885 catch~ synth-l;
#X obj 2770 910 catch~ synth-r;
#X obj 1222 589 expr~ $v1*50+$f2;
#X obj 1420 541 + 60;
#X obj 1420 517 srand 44 60;
#X msg 909 358 6;
#X obj 1364 579 expr ($f1/16)*4+1;
#X obj 1876 1251 rev3~ 100 90 1000 20;
#X obj 1469 207 soundfiler;
#X msg 1257 174 read -resize samples/amenbreak.wav amenbreak;
#N canvas 46 750 466 423 amenbreak 0;
#X obj 128 52 inlet;
#X obj 179 51 inlet;
#X obj 126 77 bng 19 250 50 0 empty empty empty 0 -10 0 12 #fcfcfc #000000 #000000;
#X obj 275 105 bpm 0.25;
#X obj 126 100 srand 45 16;
#X obj 128 126 expr $f2*($f1/16);
#X msg 123 281 \$1 \, \$2 \$3;
#X obj 125 254 pack f f f;
#X obj 128 155 t f f;
#X obj 123 305 vline~;
#X obj 123 329 tabread4~ amenbreak;
#X obj 123 353 outlet~;
#X obj 275 81 r rt-tempo;
#X obj 153 201 expr $f2/16+$f1;
#X connect 0 0 2 0;
#X connect 1 0 5 1;
#X connect 1 0 13 1;
#X connect 2 0 4 0;
#X connect 3 0 7 2;
#X connect 4 0 5 0;
#X connect 5 0 8 0;
#X connect 6 0 9 0;
#X connect 7 0 6 0;
#X connect 8 0 7 0;
#X connect 8 1 13 0;
#X connect 9 0 10 0;
#X connect 10 0 11 0;
#X connect 12 0 3 0;
#X connect 13 0 7 1;
#X restore 1171 896 pd amenbreak;
#X msg 1286 200 \; amenbreak normalize 1;
#X obj 1195 173 t b b;
#N canvas 678 710 466 423 amenbreak 0;
#X obj 128 52 inlet;
#X obj 179 51 inlet;
#X obj 126 77 bng 19 250 50 0 empty empty empty 0 -10 0 12 #fcfcfc #000000 #000000;
#X obj 275 105 bpm 0.25;
#X obj 128 126 expr $f2*($f1/16);
#X msg 123 281 \$1 \, \$2 \$3;
#X obj 125 254 pack f f f;
#X obj 128 155 t f f;
#X obj 123 305 vline~;
#X obj 123 329 tabread4~ amenbreak;
#X obj 123 353 outlet~;
#X obj 275 81 r rt-tempo;
#X obj 153 201 expr $f2/16+$f1;
#X obj 126 100 srand 46 16;
#X connect 0 0 2 0;
#X connect 1 0 4 1;
#X connect 1 0 12 1;
#X connect 2 0 13 0;
#X connect 3 0 6 2;
#X connect 4 0 7 0;
#X connect 5 0 8 0;
#X connect 6 0 5 0;
#X connect 7 0 6 0;
#X connect 7 1 12 0;
#X connect 8 0 9 0;
#X connect 9 0 10 0;
#X connect 11 0 3 0;
#X connect 12 0 6 1;
#X connect 13 0 4 0;
#X restore 1272 897 pd amenbreak;
#X obj 1166 945 throw~ drums-l;
#X obj 1277 945 throw~ drums-r;
#X obj 841 865 *~ 0.5;
#X obj 1149 1243 *~ 0.15;
#X obj 1598 164 until;
#X obj 1598 190 f;
#X obj 1629 190 + 1;
#X obj 1598 139 t f b f;
#X msg 1643 164 0;
#X floatatom 1598 214 5 0 0 0 - - - 0;
#X obj 1598 237 t b f;
#X obj 1643 214 array set arp-mel;
#X msg 1598 115 128;
#X obj 1693 188 srand 47 8;
#X obj 37 692 t f f b f;
#X obj 1685 239 srand 48 8;
#X obj 1636 265 array set arp-vol;
#X obj 2439 761 r bar0;
#X obj 2424 787 srand 49 128;
#X obj 2275 813 r clock;
#X obj 2275 844 spigot;
#X msg 2332 796 1;
#X msg 2332 824 0;
#X obj 2348 765 r bar2;
#X obj 2290 879 mod;
#X obj 2379 812 srand 50 3;
#X obj 2381 882 +;
#X obj 2380 939 mod 128;
#X obj 2439 874 +;
#X obj 2453 906 mod 128;
#X obj 2380 988 t f f;
#X obj 2378 1017 mod 4;
#X obj 2378 1044 array get chord;
#X obj 2378 1092 +;
#X obj 2500 1064 * 12;
#X obj 2378 1116 mtof;
#X obj 2379 1194 *~;
#X obj 2555 1100 vline~;
#X obj 2538 773 srand 51 128;
#X obj 2379 836 expr pow(2 \, $f1+2);
#X obj 2378 1068 expr $f1+root;
#X obj 2378 1140 phasor~;
#X obj 2378 1164 expr~ if($v1<0.5 \, $v1*4-1 \, $v1*(-4)+3);
#X obj 652 1237 rev2~ 85 75 3000 20;
#X msg 2066 1189 \$1 \$2 \, 0.8 90 \$2 \, 0 500 \$3;
#X msg 1693 103 \; arp-mel resize \$1 \; arp-vol resize \$1 \; arp-pan resize \$1;
#X obj 1587 320 array set arp-pan;
#X obj 1636 294 srand 52 8;
#X obj 2492 868 +;
#X obj 2554 850 mod 128;
#X msg 1712 58 53;
#X obj 2519 806 srand 53 128;
#X obj 2569 903 expr $f1/7;
#X obj 2379 1287 throw~ arp-l;
#X obj 2482 1287 throw~ arp-r;
#X obj 2379 1218 panner~;
#X obj 2482 1258 *~ 1;
#X obj 2379 1259 *~ 1;
#X obj 2827 1030 hsl 120 19 0.01 1 1 0 empty empty empty -2 -10 0 12 #fcfcfc #000000 #000000 0 1;
#X obj 2741 979 catch~ arp-l;
#X obj 2771 1004 catch~ arp-r;
#X obj 2739 692 tomaster~;
#X obj 2740 783 tomaster~;
#X obj 2740 470 tomaster~;
#X obj 2741 851 tomaster~;
#X obj 2740 936 tomaster~;
#X obj 2741 1030 tomaster~;
#X obj 450 119 s init;
#X obj 2695 1132 r init;
#X msg 2904 656 1;
#X msg 2896 756 0.7;
#X msg 2874 402 0.06;
#X msg 2831 820 0.5;
#X msg 2879 909 0.1;
#X msg 2866 1004 0.1;
#X obj 2703 691 tgl 19 0 empty empty empty 0 -10 0 12 #606060 #ffffff #000000 0 1;
#X obj 2704 782 tgl 19 0 empty empty empty 0 -10 0 12 #606060 #ffffff #000000 0 1;
#X obj 2703 467 tgl 19 0 empty empty empty 0 -10 0 12 #606060 #ffffff #000000 0 1;
#X obj 2702 849 tgl 19 0 empty empty empty 0 -10 0 12 #606060 #ffffff #000000 0 1;
#X obj 2705 940 tgl 19 0 empty empty empty 0 -10 0 12 #606060 #ffffff #000000 0 1;
#X obj 2704 1029 tgl 19 0 empty empty empty 0 -10 0 12 #606060 #ffffff #000000 0 1;
#X obj 2799 1117 tgl 36 0 empty mute Mute 0 -10 0 16 #606060 #ffffff #000000 0 1;
#X obj 2767 1211 master~;
#X msg 2767 1178 0.1;
#X obj 2768 1240 dac~, f 7;
#X text 2649 656 混音台;
#X obj 2216 870 bng 19 250 50 0 empty empty Arp 25 10 0 12 #c6ffc7 #000000 #000000;
#X text 483 1087 > 复合节奏（欧几里得）;
#X obj 2325 55 vsl 36 300 0 1 0 0 slider1 slider1-init empty 0 -9 0 12 #ffffff #ff8300 #000000 0 1;
#X obj 2227 1060 r slider1;
#X obj 2066 1241 max~;
#X obj 2227 1114 vline~;
#X msg 2227 1090 \$1 50;
#X obj 2281 1113 line;
#X obj 2567 526 r slider1;
#X msg 2567 581 \$1 50;
#X obj 2567 607 line;
#X obj 2431 1016 div 4;
#X obj 2740 661 lop~ 500;
#X obj 2826 661 lop~ 500;
#X floatatom 2567 631 5 0 0 0 - - - 0;
#X obj 2537 553 expr ($f1-1)*(-19500)+500;
#X obj 2579 952 r slider1;
#X msg 2555 1076 \$1 \$2 \, 0 100 \$2;
#X obj 2554 1046 pack;
#X floatatom 2579 1000 5 0 0 0 - - - 0;
#X obj 2453 931 tabread arp-vol;
#X obj 2380 965 tabread arp-mel;
#X obj 2556 876 tabread arp-pan;
#X obj 2579 976 expr $f1*50+5;
#X obj 2628 369 r slider1;
#X msg 2628 424 \$1 50;
#X obj 2628 450 line;
#X floatatom 2628 474 5 0 0 0 - - - 0;
#X obj 2740 438 hip~ 50;
#X obj 2802 439 hip~ 50;
#X obj 2596 396 expr $f1*4000;
#X obj 2372 55 vsl 36 300 1 0 0 0 slider2 slider2-init empty 0 -9 0 12 #ffffff #9c00ff #000000 0 1;
#X msg 2220 1253 \$1 50;
#X obj 2270 1251 line;
#X obj 2220 1223 r slider2;
#X obj 2271 1163 s fs-shape;
#X obj 2223 1283 s fs-pulse;
#X obj 2227 1138 *~ 1;
#X obj 52 1257 expr 1-$f1;
#X obj 52 1281 s mute;
#X msg 2604 1253 \$1 50;
#X obj 2604 1202 r slider2;
#X obj 2604 1226 expr 1-$f1;
#X obj 2602 1284 line;
#X obj 2279 54 bng 36 250 50 0 slider-init empty Reset=> -10 46 0 12 #dfdfdf #000000 #000000;
#X obj 2117 60 r slider-init;
#X msg 2117 84 0;
#X obj 2117 108 s slider2-init;
#X obj 2144 135 s slider1-init;
#X obj 1171 920 *~ 0.6;
#X obj 1272 921 *~ 0.6;
#X obj 2847 1119 vsl 19 198 0.01 1 1 0 empty empty empty 0 -9 0 12 #dfdfdf #0400ff #000000 0 1;
#X obj 2878 1118 vu 19 200 empty empty -1 -10 0 12 #404040 #000000 1 0;
#X obj 2767 1267 env~;
#X obj 2767 1291 - 90;
#X obj 2419 53 bng 48 250 50 0 empty empty 我见到的 55 25 0 40 #ffffff #ffffff #606060;
#X obj 2419 111 bng 48 250 50 0 empty empty 第\ \ \ \ \ \ \ 个疯人 55 25 0 40 #ffffff #ffffff #000000;
#X obj 2419 169 tgl 48 0 start empty 说： 55 25 0 40 #ffe3c6 #0400ff #606060 0 1;
#X obj 452 225 r start;
#X obj 479 278 sel 1;
#X obj 452 250 t f f;
#X obj 2420 228 bng 36 250 50 0 empty empty @一我EVOR 45 20 0 30 #ffffff #ffffff #606060;
#X obj 2420 275 bng 36 250 50 0 empty empty #DemoJam!’2 45 20 0 30 #ffffff #ffffff #606060;
#X obj 1261 845 array define amenbreak;
#X obj 1392 304 array define twisted;
#X obj 2339 658 array define arp-mel;
#X obj 2339 683 array define arp-vol;
#X obj 2339 708 array define arp-pan;
#X obj 337 58 s slider-init;
#X text 292 459 每个词语（短语）被抽中后， 再次抽中的概率降低3/4;
#X text 359 539 从预设的和弦列表中 随机选取和弦， 选取概率定义在数组 "chord-prob" 中;
#X obj 1526 432 expr $f1+sr*0.15*($f2/100);
#X obj 1256 452 expr $f1+sr*0.15*($f2/100);
#X obj 2141 440 value sr;
#X connect 0 0 2 0;
#X connect 0 0 674 0;
#X connect 1 0 9 0;
#X connect 2 0 32 0;
#X connect 3 1 4 0;
#X connect 4 0 5 0;
#X connect 5 0 15 0;
#X connect 6 1 7 0;
#X connect 7 0 8 0;
#X connect 8 0 15 2;
#X connect 9 0 42 0;
#X connect 9 1 155 0;
#X connect 9 2 43 0;
#X connect 10 0 11 0;
#X connect 11 0 12 0;
#X connect 11 1 13 0;
#X connect 12 0 106 0;
#X connect 13 0 107 0;
#X connect 14 0 15 1;
#X connect 15 0 21 0;
#X connect 16 0 18 0;
#X connect 17 0 20 0;
#X connect 17 0 16 0;
#X connect 21 0 17 0;
#X connect 23 0 103 0;
#X connect 24 0 25 0;
#X connect 25 0 51 0;
#X connect 26 0 3 0;
#X connect 26 1 39 0;
#X connect 27 0 102 0;
#X connect 28 0 29 0;
#X connect 29 0 52 0;
#X connect 31 0 6 0;
#X connect 31 1 40 0;
#X connect 32 0 587 0;
#X connect 32 3 154 0;
#X connect 32 4 23 0;
#X connect 32 4 27 0;
#X connect 32 4 63 0;
#X connect 32 5 97 0;
#X connect 32 5 99 0;
#X connect 32 5 98 0;
#X connect 32 5 216 0;
#X connect 32 5 231 0;
#X connect 32 5 265 0;
#X connect 32 5 324 0;
#X connect 32 5 483 0;
#X connect 32 5 499 0;
#X connect 32 5 518 0;
#X connect 32 5 532 0;
#X connect 32 5 392 0;
#X connect 32 5 393 0;
#X connect 33 0 3 1;
#X connect 33 0 36 0;
#X connect 34 0 6 1;
#X connect 34 0 45 0;
#X connect 35 0 38 0;
#X connect 36 0 41 0;
#X connect 36 1 37 1;
#X connect 38 0 44 0;
#X connect 39 0 33 0;
#X connect 40 0 34 0;
#X connect 41 0 35 0;
#X connect 42 0 104 0;
#X connect 43 0 105 0;
#X connect 44 0 37 0;
#X connect 45 0 47 0;
#X connect 45 1 49 1;
#X connect 46 0 48 0;
#X connect 47 0 50 0;
#X connect 48 0 49 0;
#X connect 50 0 46 0;
#X connect 54 0 55 0;
#X connect 55 0 33 0;
#X connect 56 0 57 0;
#X connect 57 0 58 0;
#X connect 58 0 34 0;
#X connect 59 0 66 0;
#X connect 62 0 64 0;
#X connect 63 0 94 0;
#X connect 64 0 65 0;
#X connect 64 0 68 0;
#X connect 65 0 64 1;
#X connect 66 0 62 0;
#X connect 66 1 67 0;
#X connect 66 2 61 0;
#X connect 67 0 64 1;
#X connect 68 0 69 0;
#X connect 69 0 157 0;
#X connect 69 1 70 1;
#X connect 71 0 82 0;
#X connect 72 0 78 0;
#X connect 73 0 75 0;
#X connect 74 0 72 0;
#X connect 75 0 74 0;
#X connect 76 0 72 0;
#X connect 77 0 91 0;
#X connect 78 0 95 0;
#X connect 80 0 81 0;
#X connect 81 1 83 0;
#X connect 82 1 76 0;
#X connect 82 2 80 0;
#X connect 82 3 156 0;
#X connect 83 0 84 0;
#X connect 84 0 85 0;
#X connect 84 0 87 0;
#X connect 89 0 90 0;
#X connect 91 0 92 0;
#X connect 91 1 89 0;
#X connect 94 0 59 0;
#X connect 95 0 77 0;
#X connect 96 0 79 0;
#X connect 96 0 86 0;
#X connect 97 0 101 0;
#X connect 98 0 93 0;
#X connect 99 0 100 0;
#X connect 102 0 28 0;
#X connect 103 0 24 0;
#X connect 104 0 26 0;
#X connect 105 0 31 0;
#X connect 106 0 14 0;
#X connect 107 0 14 0;
#X connect 108 0 534 0;
#X connect 109 0 212 0;
#X connect 109 0 314 0;
#X connect 110 0 111 0;
#X connect 111 0 112 0;
#X connect 111 0 114 0;
#X connect 112 0 113 0;
#X connect 113 0 111 1;
#X connect 114 0 132 0;
#X connect 115 0 111 1;
#X connect 116 0 117 0;
#X connect 117 0 122 0;
#X connect 117 0 126 0;
#X connect 117 1 128 0;
#X connect 117 2 126 0;
#X connect 118 0 310 0;
#X connect 118 1 131 0;
#X connect 119 0 120 0;
#X connect 119 0 145 0;
#X connect 119 0 177 0;
#X connect 119 0 438 0;
#X connect 119 1 201 0;
#X connect 119 1 158 0;
#X connect 120 0 126 0;
#X connect 121 0 123 0;
#X connect 122 0 121 0;
#X connect 123 0 129 0;
#X connect 124 0 118 1;
#X connect 125 0 123 0;
#X connect 125 0 126 0;
#X connect 126 0 128 1;
#X connect 128 0 122 1;
#X connect 130 0 124 0;
#X connect 131 0 109 0;
#X connect 132 0 133 0;
#X connect 132 0 214 0;
#X connect 132 1 435 0;
#X connect 132 2 145 0;
#X connect 132 2 177 0;
#X connect 132 2 213 0;
#X connect 132 2 316 0;
#X connect 132 2 159 0;
#X connect 133 1 415 0;
#X connect 133 2 140 0;
#X connect 133 2 173 0;
#X connect 133 2 344 0;
#X connect 133 3 134 0;
#X connect 133 3 313 0;
#X connect 133 3 256 0;
#X connect 134 0 135 0;
#X connect 135 0 136 0;
#X connect 136 0 137 0;
#X connect 138 0 142 0;
#X connect 138 0 311 0;
#X connect 138 0 485 0;
#X connect 139 0 141 0;
#X connect 140 0 153 0;
#X connect 140 1 139 0;
#X connect 140 2 142 4;
#X connect 140 2 311 1;
#X connect 140 2 160 0;
#X connect 141 0 138 1;
#X connect 142 0 146 0;
#X connect 142 0 147 0;
#X connect 142 0 151 0;
#X connect 142 1 191 0;
#X connect 143 0 144 0;
#X connect 143 0 161 0;
#X connect 143 1 161 2;
#X connect 144 0 142 3;
#X connect 145 0 152 0;
#X connect 146 0 252 0;
#X connect 148 0 147 0;
#X connect 149 0 148 0;
#X connect 149 0 142 1;
#X connect 149 0 141 1;
#X connect 149 0 311 2;
#X connect 150 0 142 2;
#X connect 151 0 162 0;
#X connect 151 0 353 0;
#X connect 152 0 138 0;
#X connect 153 0 152 0;
#X connect 154 0 96 0;
#X connect 155 0 10 0;
#X connect 156 0 81 1;
#X connect 157 0 70 0;
#X connect 158 0 125 0;
#X connect 159 0 116 0;
#X connect 160 0 163 0;
#X connect 161 0 150 0;
#X connect 162 0 222 0;
#X connect 162 0 221 0;
#X connect 163 0 143 0;
#X connect 163 0 149 0;
#X connect 164 0 193 0;
#X connect 164 0 202 0;
#X connect 164 0 208 0;
#X connect 165 0 168 0;
#X connect 166 0 165 0;
#X connect 167 0 168 1;
#X connect 168 0 522 0;
#X connect 169 0 192 0;
#X connect 170 0 164 0;
#X connect 171 0 175 0;
#X connect 171 0 312 0;
#X connect 171 0 391 0;
#X connect 172 0 174 0;
#X connect 173 0 185 0;
#X connect 173 1 172 0;
#X connect 173 1 190 0;
#X connect 173 2 175 4;
#X connect 173 2 312 1;
#X connect 173 2 187 0;
#X connect 174 0 171 1;
#X connect 175 0 178 0;
#X connect 175 0 179 0;
#X connect 175 0 183 0;
#X connect 176 0 188 0;
#X connect 176 1 188 2;
#X connect 177 0 184 0;
#X connect 180 0 179 0;
#X connect 181 0 180 0;
#X connect 181 0 175 1;
#X connect 181 0 174 1;
#X connect 181 0 312 2;
#X connect 181 0 190 2;
#X connect 182 0 175 2;
#X connect 183 0 186 0;
#X connect 183 0 377 0;
#X connect 184 0 171 0;
#X connect 185 0 184 0;
#X connect 186 0 248 0;
#X connect 186 0 239 0;
#X connect 186 0 244 0;
#X connect 187 0 189 0;
#X connect 188 0 182 0;
#X connect 189 0 176 0;
#X connect 189 0 181 0;
#X connect 190 0 175 3;
#X connect 190 0 413 0;
#X connect 191 0 169 0;
#X connect 191 1 198 0;
#X connect 192 0 170 0;
#X connect 193 0 194 0;
#X connect 193 1 195 0;
#X connect 194 0 258 0;
#X connect 195 0 259 0;
#X connect 196 0 197 0;
#X connect 197 0 166 0;
#X connect 198 0 199 0;
#X connect 199 0 192 1;
#X connect 200 0 202 0;
#X connect 201 0 203 1;
#X connect 201 0 211 1;
#X connect 202 0 205 0;
#X connect 203 0 200 0;
#X connect 204 0 167 0;
#X connect 205 0 204 0;
#X connect 206 0 227 0;
#X connect 206 1 228 0;
#X connect 207 0 206 1;
#X connect 208 0 210 0;
#X connect 209 0 208 0;
#X connect 210 0 207 0;
#X connect 211 0 209 0;
#X connect 212 0 516 0;
#X connect 212 0 519 0;
#X connect 213 0 212 1;
#X connect 214 0 212 1;
#X connect 216 0 217 0;
#X connect 218 0 220 0;
#X connect 219 0 218 0;
#X connect 220 0 251 0;
#X connect 221 0 219 0;
#X connect 222 0 251 0;
#X connect 223 0 618 0;
#X connect 223 0 619 0;
#X connect 224 0 581 2;
#X connect 225 0 618 0;
#X connect 226 0 619 0;
#X connect 230 0 220 1;
#X connect 231 0 217 0;
#X connect 233 0 234 1;
#X connect 234 0 247 0;
#X connect 235 0 236 0;
#X connect 236 0 234 0;
#X connect 237 0 238 0;
#X connect 238 0 250 0;
#X connect 239 0 237 0;
#X connect 239 1 240 0;
#X connect 239 1 246 0;
#X connect 240 0 241 0;
#X connect 241 0 238 1;
#X connect 242 0 238 2;
#X connect 243 0 236 1;
#X connect 244 0 245 0;
#X connect 245 0 249 0;
#X connect 246 0 242 0;
#X connect 247 0 250 0;
#X connect 248 0 243 0;
#X connect 249 0 233 0;
#X connect 250 0 386 0;
#X connect 250 0 387 0;
#X connect 250 0 563 0;
#X connect 251 0 229 0;
#X connect 252 0 253 0;
#X connect 252 1 255 0;
#X connect 253 0 251 1;
#X connect 254 0 230 0;
#X connect 255 0 251 1;
#X connect 256 0 260 0;
#X connect 258 0 196 0;
#X connect 259 0 196 1;
#X connect 260 0 257 0;
#X connect 261 0 508 0;
#X connect 262 0 261 0;
#X connect 263 0 269 0;
#X connect 264 0 263 2;
#X connect 264 0 284 2;
#X connect 265 0 264 0;
#X connect 267 0 268 0;
#X connect 268 0 262 0;
#X connect 269 0 267 0;
#X connect 269 1 678 0;
#X connect 269 2 273 0;
#X connect 270 0 274 0;
#X connect 271 0 270 1;
#X connect 271 0 280 1;
#X connect 272 0 270 0;
#X connect 273 0 678 1;
#X connect 274 0 298 0;
#X connect 275 0 282 0;
#X connect 276 0 275 0;
#X connect 277 0 278 0;
#X connect 278 0 276 0;
#X connect 279 0 277 0;
#X connect 279 1 677 0;
#X connect 279 2 285 0;
#X connect 280 0 283 0;
#X connect 281 0 280 0;
#X connect 282 0 281 0;
#X connect 283 0 297 0;
#X connect 284 0 279 0;
#X connect 285 0 677 1;
#X connect 287 0 288 0;
#X connect 288 0 289 0;
#X connect 288 0 292 0;
#X connect 289 0 288 1;
#X connect 290 0 287 0;
#X connect 290 1 291 0;
#X connect 290 2 296 0;
#X connect 291 0 288 1;
#X connect 292 0 293 0;
#X connect 293 0 295 0;
#X connect 293 1 294 1;
#X connect 295 0 294 0;
#X connect 297 0 325 0;
#X connect 298 0 322 0;
#X connect 299 0 582 2;
#X connect 300 0 582 0;
#X connect 301 0 582 1;
#X connect 304 0 306 0;
#X connect 305 0 266 0;
#X connect 305 0 263 0;
#X connect 305 0 284 0;
#X connect 305 1 512 0;
#X connect 306 0 298 1;
#X connect 306 0 297 1;
#X connect 306 0 321 0;
#X connect 307 0 305 0;
#X connect 308 0 307 1;
#X connect 308 0 324 0;
#X connect 309 0 307 1;
#X connect 309 0 323 0;
#X connect 309 0 347 0;
#X connect 309 0 348 0;
#X connect 310 0 131 0;
#X connect 310 1 110 0;
#X connect 311 0 145 0;
#X connect 312 0 177 0;
#X connect 315 0 309 0;
#X connect 315 0 510 0;
#X connect 317 0 308 0;
#X connect 318 0 307 0;
#X connect 319 0 511 0;
#X connect 320 0 271 0;
#X connect 321 0 320 0;
#X connect 322 0 303 0;
#X connect 323 0 322 0;
#X connect 323 0 325 0;
#X connect 324 0 322 0;
#X connect 324 0 325 0;
#X connect 325 0 302 0;
#X connect 326 0 328 0;
#X connect 327 0 332 0;
#X connect 327 0 434 0;
#X connect 328 0 329 0;
#X connect 329 0 330 0;
#X connect 329 0 333 0;
#X connect 330 0 329 1;
#X connect 331 0 329 1;
#X connect 332 0 326 0;
#X connect 332 1 331 0;
#X connect 332 1 337 0;
#X connect 332 1 338 0;
#X connect 332 1 339 0;
#X connect 332 1 341 0;
#X connect 333 0 336 0;
#X connect 333 1 334 0;
#X connect 334 0 335 0;
#X connect 335 0 336 1;
#X connect 336 0 343 0;
#X connect 337 0 336 5;
#X connect 338 0 336 4;
#X connect 339 0 340 0;
#X connect 340 0 336 3;
#X connect 341 0 342 0;
#X connect 342 0 336 2;
#X connect 343 0 345 0;
#X connect 343 0 426 0;
#X connect 343 1 346 0;
#X connect 343 1 427 0;
#X connect 345 0 426 0;
#X connect 345 2 426 0;
#X connect 345 3 427 0;
#X connect 346 0 427 0;
#X connect 346 2 426 0;
#X connect 346 3 427 0;
#X connect 347 0 322 3;
#X connect 348 0 325 3;
#X connect 349 0 350 0;
#X connect 350 0 365 0;
#X connect 351 0 381 0;
#X connect 352 0 376 0;
#X connect 353 0 355 0;
#X connect 353 0 352 0;
#X connect 353 0 367 0;
#X connect 354 0 351 1;
#X connect 355 0 354 0;
#X connect 356 0 357 0;
#X connect 356 1 369 0;
#X connect 357 0 361 0;
#X connect 357 0 360 1;
#X connect 358 0 349 0;
#X connect 359 0 360 0;
#X connect 359 0 364 0;
#X connect 360 0 362 0;
#X connect 361 0 358 0;
#X connect 362 0 363 0;
#X connect 363 0 361 0;
#X connect 364 0 354 0;
#X connect 365 1 351 0;
#X connect 366 0 365 1;
#X connect 367 0 366 0;
#X connect 368 0 418 0;
#X connect 369 0 370 0;
#X connect 370 0 371 0;
#X connect 370 1 371 0;
#X connect 370 2 371 0;
#X connect 370 3 372 0;
#X connect 370 4 372 0;
#X connect 370 5 374 0;
#X connect 371 0 357 1;
#X connect 372 0 357 1;
#X connect 373 0 375 0;
#X connect 374 0 373 0;
#X connect 375 0 357 1;
#X connect 376 0 356 0;
#X connect 377 0 379 0;
#X connect 378 0 359 0;
#X connect 379 0 378 0;
#X connect 381 0 380 0;
#X connect 382 0 584 2;
#X connect 383 0 584 0;
#X connect 383 0 584 1;
#X connect 384 0 390 0;
#X connect 385 0 390 1;
#X connect 390 0 388 0;
#X connect 390 1 389 0;
#X connect 391 0 403 0;
#X connect 392 0 217 0;
#X connect 393 0 217 0;
#X connect 396 0 523 0;
#X connect 397 0 523 0;
#X connect 398 0 399 0;
#X connect 398 1 400 0;
#X connect 401 0 406 0;
#X connect 402 0 401 1;
#X connect 402 0 405 0;
#X connect 403 0 401 0;
#X connect 404 0 402 0;
#X connect 406 0 407 0;
#X connect 407 0 408 0;
#X connect 408 0 412 0;
#X connect 409 0 411 0;
#X connect 411 0 408 1;
#X connect 411 0 410 0;
#X connect 412 0 396 0;
#X connect 412 1 397 0;
#X connect 416 0 417 0;
#X connect 417 0 422 0;
#X connect 418 0 354 0;
#X connect 419 0 424 0;
#X connect 419 0 458 1;
#X connect 420 0 419 1;
#X connect 420 0 679 0;
#X connect 421 0 420 0;
#X connect 422 0 419 0;
#X connect 426 0 423 0;
#X connect 426 0 429 0;
#X connect 427 0 428 0;
#X connect 427 0 430 0;
#X connect 431 0 583 2;
#X connect 432 0 634 0;
#X connect 433 0 635 0;
#X connect 434 0 423 0;
#X connect 434 0 428 0;
#X connect 436 0 441 0;
#X connect 437 0 423 0;
#X connect 437 0 428 0;
#X connect 439 0 418 0;
#X connect 440 0 437 0;
#X connect 440 0 444 0;
#X connect 441 0 443 0;
#X connect 441 1 437 0;
#X connect 441 1 452 0;
#X connect 441 1 456 0;
#X connect 442 0 446 0;
#X connect 443 0 442 0;
#X connect 444 0 442 0;
#X connect 445 0 444 0;
#X connect 446 0 453 0;
#X connect 447 0 451 1;
#X connect 448 0 446 1;
#X connect 449 0 448 1;
#X connect 450 0 449 0;
#X connect 451 0 448 0;
#X connect 452 0 451 0;
#X connect 452 1 450 0;
#X connect 453 0 454 0;
#X connect 453 0 458 0;
#X connect 453 0 459 0;
#X connect 454 0 455 0;
#X connect 455 0 453 1;
#X connect 456 0 453 1;
#X connect 457 0 463 0;
#X connect 457 1 464 0;
#X connect 458 0 457 0;
#X connect 460 0 429 0;
#X connect 460 1 430 0;
#X connect 461 0 462 0;
#X connect 462 0 460 2;
#X connect 463 0 429 0;
#X connect 463 0 460 0;
#X connect 464 0 430 0;
#X connect 464 0 460 1;
#X connect 465 0 466 0;
#X connect 466 0 467 0;
#X connect 467 0 468 0;
#X connect 467 0 469 0;
#X connect 468 0 467 1;
#X connect 469 0 474 0;
#X connect 469 1 470 0;
#X connect 470 0 473 0;
#X connect 471 0 467 1;
#X connect 473 0 476 0;
#X connect 474 0 484 0;
#X connect 475 0 610 0;
#X connect 476 0 478 0;
#X connect 476 1 477 0;
#X connect 477 0 478 1;
#X connect 478 0 474 1;
#X connect 480 0 481 0;
#X connect 481 0 501 0;
#X connect 481 0 502 0;
#X connect 482 0 491 0;
#X connect 483 0 500 0;
#X connect 483 0 501 0;
#X connect 484 0 503 0;
#X connect 484 0 513 0;
#X connect 484 1 504 0;
#X connect 484 1 513 1;
#X connect 485 0 486 0;
#X connect 486 0 488 0;
#X connect 487 0 490 0;
#X connect 488 0 482 0;
#X connect 490 0 486 1;
#X connect 490 0 489 0;
#X connect 491 0 483 0;
#X connect 491 1 465 0;
#X connect 491 2 471 0;
#X connect 491 2 497 0;
#X connect 492 0 493 2;
#X connect 493 0 564 0;
#X connect 494 0 495 0;
#X connect 494 1 493 1;
#X connect 494 2 492 0;
#X connect 495 0 496 0;
#X connect 496 0 493 0;
#X connect 497 0 494 0;
#X connect 500 0 502 0;
#X connect 505 0 585 2;
#X connect 506 0 585 0;
#X connect 507 0 585 1;
#X connect 508 0 272 0;
#X connect 509 0 508 1;
#X connect 510 0 509 0;
#X connect 511 0 290 0;
#X connect 512 0 304 0;
#X connect 513 0 503 0;
#X connect 513 1 504 0;
#X connect 513 2 503 0;
#X connect 513 3 504 0;
#X connect 514 0 516 1;
#X connect 514 0 519 1;
#X connect 515 0 514 0;
#X connect 516 0 655 0;
#X connect 518 0 517 0;
#X connect 518 1 515 0;
#X connect 519 0 656 0;
#X connect 522 0 206 0;
#X connect 523 0 398 0;
#X connect 524 0 525 0;
#X connect 525 0 526 0;
#X connect 525 0 529 0;
#X connect 526 0 525 1;
#X connect 527 0 524 0;
#X connect 527 1 528 0;
#X connect 527 2 565 0;
#X connect 528 0 525 1;
#X connect 529 0 530 0;
#X connect 530 0 533 0;
#X connect 530 0 535 0;
#X connect 530 0 567 0;
#X connect 530 1 531 1;
#X connect 530 1 536 1;
#X connect 530 1 566 1;
#X connect 532 0 527 0;
#X connect 533 0 531 0;
#X connect 534 0 118 0;
#X connect 534 1 119 0;
#X connect 534 2 115 0;
#X connect 534 3 644 0;
#X connect 535 0 536 0;
#X connect 537 0 538 0;
#X connect 537 0 541 0;
#X connect 537 0 545 0;
#X connect 537 0 558 0;
#X connect 537 0 571 0;
#X connect 538 0 546 1;
#X connect 539 0 540 0;
#X connect 540 0 544 0;
#X connect 540 0 606 0;
#X connect 541 0 540 1;
#X connect 542 0 540 1;
#X connect 543 0 542 0;
#X connect 544 0 546 0;
#X connect 544 0 548 0;
#X connect 544 0 568 0;
#X connect 545 0 559 0;
#X connect 546 0 547 0;
#X connect 547 0 627 0;
#X connect 548 0 549 0;
#X connect 549 0 626 0;
#X connect 550 0 551 0;
#X connect 550 1 617 0;
#X connect 551 0 552 0;
#X connect 552 0 560 0;
#X connect 553 0 555 0;
#X connect 554 0 553 1;
#X connect 555 0 561 0;
#X connect 556 0 575 0;
#X connect 557 0 556 1;
#X connect 558 0 548 1;
#X connect 559 0 544 1;
#X connect 560 0 553 0;
#X connect 561 0 562 0;
#X connect 562 0 556 0;
#X connect 563 0 386 0;
#X connect 563 1 387 0;
#X connect 563 2 386 0;
#X connect 563 3 387 0;
#X connect 564 0 475 0;
#X connect 567 0 566 0;
#X connect 568 0 569 0;
#X connect 569 0 628 0;
#X connect 571 0 568 1;
#X connect 572 0 575 1;
#X connect 575 0 577 0;
#X connect 575 1 576 0;
#X connect 576 0 574 0;
#X connect 577 0 573 0;
#X connect 578 0 586 2;
#X connect 579 0 586 0;
#X connect 580 0 586 1;
#X connect 588 0 589 0;
#X connect 588 0 590 0;
#X connect 588 0 591 0;
#X connect 588 0 592 0;
#X connect 588 0 593 0;
#X connect 588 0 594 0;
#X connect 588 0 603 0;
#X connect 589 0 224 0;
#X connect 590 0 299 0;
#X connect 591 0 431 0;
#X connect 592 0 382 0;
#X connect 593 0 505 0;
#X connect 594 0 578 0;
#X connect 595 0 581 3;
#X connect 596 0 582 3;
#X connect 597 0 583 3;
#X connect 598 0 584 3;
#X connect 599 0 585 3;
#X connect 600 0 586 3;
#X connect 601 0 602 1;
#X connect 602 0 604 0;
#X connect 602 0 659 0;
#X connect 602 1 604 1;
#X connect 602 1 659 0;
#X connect 603 0 657 0;
#X connect 609 0 612 0;
#X connect 610 0 472 0;
#X connect 611 0 643 0;
#X connect 612 0 611 0;
#X connect 612 0 613 0;
#X connect 613 0 641 0;
#X connect 614 0 621 0;
#X connect 615 0 616 0;
#X connect 616 0 618 1;
#X connect 616 0 619 1;
#X connect 616 0 620 0;
#X connect 617 0 554 0;
#X connect 618 0 581 0;
#X connect 619 0 581 1;
#X connect 621 0 615 0;
#X connect 622 0 629 0;
#X connect 623 0 557 0;
#X connect 624 0 623 0;
#X connect 626 0 624 0;
#X connect 627 0 550 0;
#X connect 628 0 572 0;
#X connect 629 0 624 1;
#X connect 629 0 625 0;
#X connect 630 0 636 0;
#X connect 631 0 632 0;
#X connect 632 0 633 0;
#X connect 632 0 634 1;
#X connect 632 0 635 1;
#X connect 634 0 583 0;
#X connect 635 0 583 1;
#X connect 636 0 631 0;
#X connect 638 0 639 0;
#X connect 639 0 642 0;
#X connect 640 0 638 0;
#X connect 643 0 610 1;
#X connect 644 0 645 0;
#X connect 646 0 649 0;
#X connect 647 0 648 0;
#X connect 648 0 646 0;
#X connect 649 0 577 1;
#X connect 649 0 576 1;
#X connect 651 0 652 0;
#X connect 652 0 653 0;
#X connect 652 0 654 0;
#X connect 655 0 520 0;
#X connect 656 0 521 0;
#X connect 657 0 602 0;
#X connect 659 0 660 0;
#X connect 660 0 658 0;
#X connect 664 0 666 0;
#X connect 665 0 2 0;
#X connect 666 0 108 0;
#X connect 666 1 665 0;
#X connect 677 0 277 1;
#X connect 678 0 267 1;
