#N canvas 2104 546 714 454 12;
#X obj 358 65 catch~ master-l;
#X obj 473 68 catch~ master-r;
#X obj 481 111 inlet;
#X obj 507 140 loadbang;
#X obj 508 167 f \$1;
#X obj 372 166 *~ 1;
#X obj 425 166 *~ 1;
#X obj 630 154 tgl 19 0 empty empty empty 0 -10 0 12 #fcfcfc #000000
#000000 1 1;
#X obj 630 248 min;
#X obj 630 178 expr 1-$f1;
#X msg 548 166 0;
#X obj 532 106 inlet mute;
#X obj 642 212 t b f;
#X obj 366 209 outlet~;
#X obj 430 210 outlet~;
#X obj 90 86 tgl 15 0 empty record empty 17 7 0 10 #fcfcfc #000000
#000000 0 1;
#X obj 90 110 sel 0 1;
#X obj 240 96 r rnd-seed;
#X obj 190 56 loadbang;
#X msg 190 85 0;
#X obj 140 186 f;
#X obj 110 146 t b b;
#X symbolatom 140 244 16 0 0 0 - - -, f 16;
#X obj 120 396 writesf~ 2;
#X msg 80 236 start;
#X msg 40 295 stop;
#X msg 140 276 open -bytes 4 \$1;
#X obj 140 215 makefilename records/%d.wav;
#X obj 190 330 print;
#X connect 0 0 5 0;
#X connect 0 0 23 0;
#X connect 1 0 6 0;
#X connect 1 0 23 1;
#X connect 2 0 12 0;
#X connect 3 0 4 0;
#X connect 3 0 10 0;
#X connect 4 0 6 1;
#X connect 4 0 5 1;
#X connect 4 0 8 1;
#X connect 5 0 13 0;
#X connect 6 0 14 0;
#X connect 7 0 9 0;
#X connect 8 0 5 1;
#X connect 8 0 6 1;
#X connect 9 0 8 0;
#X connect 10 0 7 0;
#X connect 11 0 7 0;
#X connect 12 0 8 0;
#X connect 12 1 8 1;
#X connect 15 0 16 0;
#X connect 16 0 25 0;
#X connect 16 1 21 0;
#X connect 17 0 20 1;
#X connect 18 0 19 0;
#X connect 19 0 20 1;
#X connect 20 0 27 0;
#X connect 21 0 24 0;
#X connect 21 1 20 0;
#X connect 22 0 26 0;
#X connect 24 0 23 0;
#X connect 25 0 23 0;
#X connect 26 0 23 0;
#X connect 26 0 28 0;
#X connect 27 0 22 0;
