#N canvas 2050 330 964 944 12;
#X obj 289 114 phasor~;
#X obj 40 492 outlet~;
#X obj 40 390 *~;
#X obj 591 19 loadbang;
#X msg 591 51 0;
#X obj 91 384 r~ fs-vol;
#X obj 40 39 inlet;
#X obj 40 63 unpack f f f;
#X obj 466 10 r fs-shape;
#X obj 381 31 r fs-pulse;
#X obj 40 87 mtof;
#X obj 40 149 expr~ if($v2<=$f3 \, 0 \, (-1/($f3-1))*$v1+1-(-1/($f3-1)))
;
#X obj 233 181 expr~ if($v1<=$f2 \, 0 \, (-1/($f2-1))*$v1+1-(-1/($f2-1)))
;
#X obj 40 219 expr~ if($v2>0.5 \, $f3+(1-$f3)*$v1 \, (-1)*$f3+(1-$f3)*$v1)
;
#X obj 40 117 tabosc4~ noise1-l;
#X obj 550 467 outlet~;
#X obj 551 378 *~;
#X obj 602 372 r~ fs-vol;
#X obj 552 149 expr~ if($v2<=$f3 \, 0 \, (-1/($f3-1))*$v1+1-(-1/($f3-1)))
;
#X obj 551 207 expr~ if($v2>0.5 \, $f3+(1-$f3)*$v1 \, (-1)*$f3+(1-$f3)*$v1)
;
#X obj 551 105 tabosc4~ noise1-r;
#X obj 292 34 osc~;
#X obj 281 61 *~ 0.5;
#X obj 40 414 *~ 1;
#X obj 551 402 *~ 1;
#X obj 266 462 expr \$1*(-0.4)+1;
#X obj 40 438 *~ 1;
#X obj 551 432 *~ 1;
#X msg 265 530 0;
#X msg 341 526 1;
#X floatatom 454 62 5 0 0 0 - - -, f 5;
#X obj 396 65 sel 1;
#X obj 40 280 +~;
#X obj 160 270 sig~;
#X obj 550 260 +~;
#X connect 0 0 11 1;
#X connect 0 0 12 0;
#X connect 0 0 18 1;
#X connect 2 0 23 0;
#X connect 3 0 4 0;
#X connect 4 0 11 2;
#X connect 4 0 12 1;
#X connect 4 0 13 2;
#X connect 4 0 18 2;
#X connect 4 0 19 2;
#X connect 4 0 33 0;
#X connect 5 0 2 1;
#X connect 6 0 7 0;
#X connect 7 0 10 0;
#X connect 7 1 13 2;
#X connect 7 2 11 2;
#X connect 7 2 12 1;
#X connect 8 0 13 2;
#X connect 8 0 19 2;
#X connect 8 0 25 0;
#X connect 9 0 30 0;
#X connect 9 0 31 0;
#X connect 9 0 33 0;
#X connect 10 0 0 0;
#X connect 10 0 14 0;
#X connect 10 0 20 0;
#X connect 10 0 21 0;
#X connect 11 0 13 0;
#X connect 12 0 13 1;
#X connect 12 0 19 1;
#X connect 13 0 32 0;
#X connect 14 0 11 0;
#X connect 16 0 24 0;
#X connect 17 0 16 1;
#X connect 18 0 19 0;
#X connect 19 0 34 0;
#X connect 20 0 18 0;
#X connect 21 0 22 0;
#X connect 22 0 11 0;
#X connect 22 0 18 0;
#X connect 23 0 26 0;
#X connect 24 0 27 0;
#X connect 25 0 23 1;
#X connect 25 0 24 1;
#X connect 26 0 1 0;
#X connect 27 0 15 0;
#X connect 28 0 26 1;
#X connect 28 0 27 1;
#X connect 29 0 26 1;
#X connect 29 0 27 1;
#X connect 31 0 28 0;
#X connect 31 1 11 2;
#X connect 31 1 12 1;
#X connect 31 1 18 2;
#X connect 31 1 29 0;
#X connect 32 0 2 0;
#X connect 33 0 32 1;
#X connect 33 0 34 1;
#X connect 34 0 16 0;
