#N canvas 744 394 1009 658 12;
#X obj 37 52 inlet~;
#X obj 191 52 inlet;
#X obj 258 20 loadbang;
#X obj 241 75 f \$1;
#X obj 103 53 inlet~;
#X obj 22 114 delwrite~ \$0-pp-l 2000;
#X obj 105 150 delwrite~ \$0-pp-r 2000;
#X obj 51 231 delread~ \$0-pp-l;
#X obj 320 53 inlet fb;
#X obj 403 77 f \$2;
#X obj 51 264 *~ 0.5;
#X obj 185 265 *~ 0.5;
#X obj 45 311 outlet~;
#X obj 177 313 outlet~;
#X obj 185 232 delread~ \$0-pp-r;
#X connect 0 0 6 0;
#X connect 1 0 7 0;
#X connect 1 0 14 0;
#X connect 2 0 3 0;
#X connect 2 0 9 0;
#X connect 3 0 7 0;
#X connect 3 0 14 0;
#X connect 4 0 5 0;
#X connect 7 0 10 0;
#X connect 8 0 10 1;
#X connect 8 0 11 1;
#X connect 9 0 10 1;
#X connect 9 0 11 1;
#X connect 10 0 6 0;
#X connect 10 0 12 0;
#X connect 11 0 5 0;
#X connect 11 0 13 0;
#X connect 14 0 11 0;
