#N canvas 1581 725 450 300 12;
#X obj 25 22 inlet;
#X obj 213 20 inlet;
#X obj 80 22 inlet;
#X obj 25 81 random;
#X obj 25 109 outlet;
#X obj 80 46 + \$1;
#X msg 80 70 seed \$1;
#X obj 138 114 loadbang;
#X obj 138 138 f \$2;
#X obj 127 22 r rnd-seed;
#X connect 0 0 3 0;
#X connect 1 0 3 1;
#X connect 2 0 5 0;
#X connect 3 0 4 0;
#X connect 5 0 6 0;
#X connect 6 0 3 0;
#X connect 7 0 8 0;
#X connect 8 0 3 1;
#X connect 9 0 5 0;
