#N canvas 1205 607 506 429 12;
#X obj 29 52 inlet~;
#X obj 82 52 inlet~;
#X obj 141 51 inlet;
#X obj 167 80 loadbang;
#X obj 168 107 f \$1;
#X obj 32 106 *~ 1;
#X obj 85 106 *~ 1;
#X obj 26 149 throw~ master-l;
#X obj 149 150 throw~ master-r;
#X obj 290 94 tgl 19 0 empty empty empty 0 -10 0 12 #fcfcfc #000000 #000000 0 1;
#X obj 290 188 min;
#X obj 290 118 expr 1-$f1;
#X msg 208 106 0;
#X obj 192 46 inlet mute;
#X obj 302 152 t b f;
#X connect 0 0 5 0;
#X connect 0 1 9 0;
#X connect 1 0 6 0;
#X connect 2 0 14 0;
#X connect 3 0 4 0;
#X connect 3 0 12 0;
#X connect 4 0 6 1;
#X connect 4 0 5 1;
#X connect 4 0 10 1;
#X connect 5 0 7 0;
#X connect 6 0 8 0;
#X connect 9 0 11 0;
#X connect 10 0 5 1;
#X connect 10 0 6 1;
#X connect 11 0 10 0;
#X connect 12 0 9 0;
#X connect 13 0 9 0;
#X connect 14 0 10 0;
#X connect 14 1 10 1;
